<svg width="46" height="13" viewBox="0 0 46 13" fill="none" xmlns="http://www.w3.org/2000/svg">
  <g clip-path="url(#clip0_1_2)">
    <path fill="#193962" d="M0 0h13.009v12.942H0z"/>
    <path d="M3.15 1.85h3.06q1.041 0 1.758.317.723.318 1.098.94.38.615.38 1.517 0 .634-.26 1.162-.253.52-.736.888a3.3 3.3 0 0 1-1.142.54l-.343.133H4.089l-.012-.997h2.17q.66 0 1.099-.228.438-.235.66-.628.222-.394.222-.87 0-.534-.21-.933a1.4 1.4 0 0 0-.66-.616q-.444-.222-1.148-.222H4.375v8.24H3.15zm5.402 9.242-2.247-4.19 1.276-.006 2.278 4.12v.076z" fill="#fff"/>
    <path fill="#193962" d="M16.01 0h12.926v12.942H16.01z"/>
    <path d="M20.835 1.85v9.242h-1.226V1.85zm3.872 4.158V7.01h-4.139V6.008zm.628-4.158v1.003h-4.767V1.85z" fill="#fff"/>
    <path fill="#193962" d="M31.935 0h13.141v12.942H31.935z"/>
    <path d="M39.106 1.85v9.242h-1.207V1.85zm2.97 0v1.003h-7.14V1.85z" fill="#fff"/>
  </g>
</svg>
