<svg class="ghi-icons-sprite" xmlns="http://www.w3.org/2000/svg" xmlns:xlink="http://www.w3.org/1999/xlink"><symbol viewBox="0 0 48 48" id="arrow-left" xmlns="http://www.w3.org/2000/svg"><path d="M34 48a4 4 0 0 1-2.83-1.17l-20-20a4 4 0 0 1 0-5.66l20-20a4 4 0 0 1 5.66 5.66L19.66 24l17.17 17.17A4 4 0 0 1 34 48Z"/></symbol><symbol viewBox="0 0 48 48" id="arrow-right" xmlns="http://www.w3.org/2000/svg"><path d="M14 48a4 4 0 0 1-2.83-6.83L28.34 24 11.17 6.83a4 4 0 0 1 5.66-5.66l20 20a4 4 0 0 1 0 5.66l-20 20A4 4 0 0 1 14 48Z"/></symbol><symbol viewBox="0 0 48 48" id="coordination" xmlns="http://www.w3.org/2000/svg"><circle cx="24" cy="24" r="6"/><path d="M32 18h9a2 2 0 0 0 0-4h-4.172L47.414 3.414A2 2 0 1 0 44.586.586L34 11.172V7a2 2 0 0 0-4 0v9a2 2 0 0 0 2 2ZM11.172 14H7a2 2 0 0 0 0 4h9a2 2 0 0 0 2-2V7a2 2 0 0 0-4 0v4.172L3.414.586A2 2 0 0 0 .586 3.414ZM36.828 34H41a2 2 0 0 0 0-4h-9a2 2 0 0 0-2 2v9a2 2 0 0 0 4 0v-4.172l10.586 10.586a2 2 0 0 0 2.828-2.828ZM16 30H7a2 2 0 0 0 0 4h4.172L.586 44.586a2 2 0 1 0 2.828 2.828L14 36.828V41a2 2 0 0 0 4 0v-9a2 2 0 0 0-2-2Z"/></symbol><symbol viewBox="0 0 32 44" id="document" xmlns="http://www.w3.org/2000/svg"><path d="M30 0H2a2.006 2.006 0 0 0-2 2v40a2.006 2.006 0 0 0 2 2h19v-7a3.999 3.999 0 0 1 4-4h7V2a2.006 2.006 0 0 0-2-2Zm-4.5 28h-19a1.5 1.5 0 0 1 0-3h19a1.5 1.5 0 0 1 0 3Zm0-8h-19a1.5 1.5 0 0 1 0-3h19a1.5 1.5 0 0 1 0 3Zm0-8h-19a1.5 1.5 0 0 1 0-3h19a1.5 1.5 0 0 1 0 3Z"/><path d="M23 37v7l9-9h-7a2.006 2.006 0 0 0-2 2Z"/></symbol><symbol viewBox="0 0 48 48" id="download" xmlns="http://www.w3.org/2000/svg"><path d="m7.88 33.12 14 14a3 3 0 0 0 4.24 0l14-14a3 3 0 0 0-4.24-4.24L27 37.76V12a3 3 0 0 0-6 0v25.76l-8.88-8.88a3 3 0 0 0-4.24 4.24Z"/><path d="M45.8 0H2.2A2.37 2.37 0 0 0 0 2.51v9A2.37 2.37 0 0 0 2.2 14H18v-2a6 6 0 0 1 12 0v2h15.8a2.37 2.37 0 0 0 2.2-2.51v-9A2.37 2.37 0 0 0 45.8 0ZM36 9a2 2 0 1 1 2-2 2 2 0 0 1-2 2Zm7 0a2 2 0 1 1 2-2 2 2 0 0 1-2 2Z"/></symbol><symbol class="fghi-icons-sprite" viewBox="0 0 100 100" id="ghi-icons-sprite" xmlns="http://www.w3.org/2000/svg"><symbol viewBox="0 0 48 48" id="farrow-left" xmlns="http://www.w3.org/2000/svg"><path d="M34 48a4 4 0 0 1-2.83-1.17l-20-20a4 4 0 0 1 0-5.66l20-20a4 4 0 0 1 5.66 5.66L19.66 24l17.17 17.17A4 4 0 0 1 34 48Z"/></symbol><symbol viewBox="0 0 48 48" id="farrow-right" xmlns="http://www.w3.org/2000/svg"><path d="M14 48a4 4 0 0 1-2.83-6.83L28.34 24 11.17 6.83a4 4 0 0 1 5.66-5.66l20 20a4 4 0 0 1 0 5.66l-20 20A4 4 0 0 1 14 48Z"/></symbol><symbol viewBox="0 0 48 48" id="fcoordination" xmlns="http://www.w3.org/2000/svg"><defs><style>.fccls-1,.ffccls-1,.ffdcls-1{fill:#418fde}</style></defs><g id="fcLayer_2" data-name="Layer 2"><g id="fcIcons"><circle class="fccls-1" cx="24" cy="24" r="6"/><path class="fccls-1" d="M32 18h9a2 2 0 0 0 0-4h-4.172L47.414 3.414A2 2 0 1 0 44.586.586L34 11.172V7a2 2 0 0 0-4 0v9a2 2 0 0 0 2 2Zm-20.828-4H7a2 2 0 0 0 0 4h9a2 2 0 0 0 2-2V7a2 2 0 0 0-4 0v4.172L3.414.586A2 2 0 0 0 .586 3.414Zm25.656 20H41a2 2 0 0 0 0-4h-9a2 2 0 0 0-2 2v9a2 2 0 0 0 4 0v-4.172l10.586 10.586a2 2 0 0 0 2.828-2.828ZM16 30H7a2 2 0 0 0 0 4h4.172L.586 44.586a2 2 0 1 0 2.828 2.828L14 36.828V41a2 2 0 0 0 4 0v-9a2 2 0 0 0-2-2Z"/></g></g></symbol><symbol viewBox="0 0 32 44" id="fdocument" xmlns="http://www.w3.org/2000/svg"><path d="M30 0H2a2.006 2.006 0 0 0-2 2v40a2.006 2.006 0 0 0 2 2h19v-7a3.999 3.999 0 0 1 4-4h7V2a2.006 2.006 0 0 0-2-2Zm-4.5 28h-19a1.5 1.5 0 0 1 0-3h19a1.5 1.5 0 0 1 0 3Zm0-8h-19a1.5 1.5 0 0 1 0-3h19a1.5 1.5 0 0 1 0 3Zm0-8h-19a1.5 1.5 0 0 1 0-3h19a1.5 1.5 0 0 1 0 3Z"/><path d="M23 37v7l9-9h-7a2.006 2.006 0 0 0-2 2Z"/></symbol><symbol viewBox="0 0 48 48" id="fdownload" xmlns="http://www.w3.org/2000/svg"><path d="m7.88 33.12 14 14a3 3 0 0 0 4.24 0l14-14a3 3 0 0 0-4.24-4.24L27 37.76V12a3 3 0 0 0-6 0v25.76l-8.88-8.88a3 3 0 0 0-4.24 4.24Z"/><path d="M45.8 0H2.2A2.37 2.37 0 0 0 0 2.51v9A2.37 2.37 0 0 0 2.2 14H18v-2a6 6 0 0 1 12 0v2h15.8a2.37 2.37 0 0 0 2.2-2.51v-9A2.37 2.37 0 0 0 45.8 0ZM36 9a2 2 0 1 1 2-2 2 2 0 0 1-2 2Zm7 0a2 2 0 1 1 2-2 2 2 0 0 1-2 2Z"/></symbol><symbol class="ffghi-icons-sprite" viewBox="0 0 100 100" id="fghi-icons-sprite" xmlns="http://www.w3.org/2000/svg"><symbol viewBox="0 0 48 48" id="ffarrow-left"><path d="M34 48a4 4 0 0 1-2.83-1.17l-20-20a4 4 0 0 1 0-5.66l20-20a4 4 0 0 1 5.66 5.66L19.66 24l17.17 17.17A4 4 0 0 1 34 48Z"/></symbol><symbol viewBox="0 0 48 48" id="ffarrow-right"><path d="M14 48a4 4 0 0 1-2.83-6.83L28.34 24 11.17 6.83a4 4 0 0 1 5.66-5.66l20 20a4 4 0 0 1 0 5.66l-20 20A4 4 0 0 1 14 48Z"/></symbol><symbol viewBox="0 0 48 48" id="ffcoordination"><g id="ffcLayer_2" data-name="Layer 2"><g id="ffcIcons"><circle class="ffccls-1" cx="24" cy="24" r="6"/><path class="ffccls-1" d="M32 18h9a2 2 0 0 0 0-4h-4.172L47.414 3.414A2 2 0 1 0 44.586.586L34 11.172V7a2 2 0 0 0-4 0v9a2 2 0 0 0 2 2Zm-20.828-4H7a2 2 0 0 0 0 4h9a2 2 0 0 0 2-2V7a2 2 0 0 0-4 0v4.172L3.414.586A2 2 0 0 0 .586 3.414Zm25.656 20H41a2 2 0 0 0 0-4h-9a2 2 0 0 0-2 2v9a2 2 0 0 0 4 0v-4.172l10.586 10.586a2 2 0 0 0 2.828-2.828ZM16 30H7a2 2 0 0 0 0 4h4.172L.586 44.586a2 2 0 1 0 2.828 2.828L14 36.828V41a2 2 0 0 0 4 0v-9a2 2 0 0 0-2-2Z"/></g></g></symbol><symbol viewBox="0 0 32 44" id="ffdocument"><g id="ffdLayer_2" data-name="Layer 2"><g id="ffdIcons"><path class="ffdcls-1" d="M30 0H2a2.006 2.006 0 0 0-2 2v40a2.006 2.006 0 0 0 2 2h19v-7a3.999 3.999 0 0 1 4-4h7V2a2.006 2.006 0 0 0-2-2Zm-4.5 28h-19a1.5 1.5 0 0 1 0-3h19a1.5 1.5 0 0 1 0 3Zm0-8h-19a1.5 1.5 0 0 1 0-3h19a1.5 1.5 0 0 1 0 3Zm0-8h-19a1.5 1.5 0 0 1 0-3h19a1.5 1.5 0 0 1 0 3Z"/><path class="ffdcls-1" d="M23 37v7l9-9h-7a2.006 2.006 0 0 0-2 2Z"/></g></g></symbol><symbol viewBox="0 0 48 48" id="ffdownload"><path d="m7.88 33.12 14 14a3 3 0 0 0 4.24 0l14-14a3 3 0 0 0-4.24-4.24L27 37.76V12a3 3 0 0 0-6 0v25.76l-8.88-8.88a3 3 0 0 0-4.24 4.24Z"/><path d="M45.8 0H2.2A2.37 2.37 0 0 0 0 2.51v9A2.37 2.37 0 0 0 2.2 14H18v-2a6 6 0 0 1 12 0v2h15.8a2.37 2.37 0 0 0 2.2-2.51v-9A2.37 2.37 0 0 0 45.8 0ZM36 9a2 2 0 1 1 2-2 2 2 0 0 1-2 2Zm7 0a2 2 0 1 1 2-2 2 2 0 0 1-2 2Z"/></symbol><symbol viewBox="0 0 48 48" id="ffsearch"><path d="M46.829 41.172 38.4 32.744a21.018 21.018 0 1 0-5.657 5.657l8.427 8.427a4 4 0 0 0 5.658-5.656ZM8 21a13 13 0 1 1 22.325 9.046c-.05.045-.106.078-.154.126s-.08.104-.125.154A12.992 12.992 0 0 1 8 21Z"/></symbol></symbol><symbol viewBox="0 0 48 48" id="fsearch" xmlns="http://www.w3.org/2000/svg"><path d="M46.829 41.172 38.4 32.744a21.018 21.018 0 1 0-5.657 5.657l8.427 8.427a4 4 0 0 0 5.658-5.656ZM8 21a13 13 0 1 1 22.325 9.046c-.05.045-.106.078-.154.126s-.08.104-.125.154A12.992 12.992 0 0 1 8 21Z"/></symbol></symbol><symbol viewBox="0 0 48 48" id="search" xmlns="http://www.w3.org/2000/svg"><path d="M46.829 41.172 38.4 32.744a21.018 21.018 0 1 0-5.657 5.657l8.427 8.427a4 4 0 0 0 5.658-5.656ZM8 21a13 13 0 1 1 22.325 9.046c-.05.045-.106.078-.154.126s-.08.104-.125.154A12.992 12.992 0 0 1 8 21Z"/></symbol></svg>