<svg class="ghi-icons-sprite" xmlns="http://www.w3.org/2000/svg" xmlns:xlink="http://www.w3.org/1999/xlink"><symbol viewBox="0 0 48 48" id="arrow-left" xmlns="http://www.w3.org/2000/svg"><path d="M34 48a4 4 0 01-2.83-1.17l-20-20a4 4 0 010-5.66l20-20a4 4 0 015.66 5.66L19.66 24l17.17 17.17A4 4 0 0134 48z"/></symbol><symbol viewBox="0 0 48 48" id="arrow-right" xmlns="http://www.w3.org/2000/svg"><path d="M14 48a4 4 0 01-2.83-6.83L28.34 24 11.17 6.83a4 4 0 015.66-5.66l20 20a4 4 0 010 5.66l-20 20A4 4 0 0114 48z"/></symbol><symbol viewBox="0 0 48 48" id="download" xmlns="http://www.w3.org/2000/svg"><path d="M7.88 33.12l14 14a3 3 0 004.24 0l14-14a3 3 0 00-4.24-4.24L27 37.76V12a3 3 0 00-6 0v25.76l-8.88-8.88a3 3 0 00-4.24 4.24z"/><path d="M45.8 0H2.2A2.37 2.37 0 000 2.51v9A2.37 2.37 0 002.2 14H18v-2a6 6 0 0112 0v2h15.8a2.37 2.37 0 002.2-2.51v-9A2.37 2.37 0 0045.8 0zM36 9a2 2 0 112-2 2 2 0 01-2 2zm7 0a2 2 0 112-2 2 2 0 01-2 2z"/></symbol><symbol class="dghi-icons-sprite" viewBox="0 0 0 0" id="ghi-icons-sprite" xmlns="http://www.w3.org/2000/svg"/><symbol viewBox="0 0 48 48" id="search" xmlns="http://www.w3.org/2000/svg"><path d="M46.829 41.172L38.4 32.744a21.018 21.018 0 10-5.657 5.657l8.427 8.427a4 4 0 005.658-5.656zM8 21a13 13 0 1122.325 9.046c-.05.045-.106.078-.154.126s-.08.104-.125.154A12.992 12.992 0 018 21z"/></symbol></svg>