<svg class="ghi-icons-sprite" xmlns="http://www.w3.org/2000/svg" xmlns:xlink="http://www.w3.org/1999/xlink"><symbol class="ahpc-icons-sprite" viewBox="0 0 0 0" id="cd-icons-sprite" xmlns="http://www.w3.org/2000/svg"/><symbol viewBox="0 0 48 48" id="download" xmlns="http://www.w3.org/2000/svg"><path d="M7.88 33.12l14 14a3 3 0 004.24 0l14-14a3 3 0 00-4.24-4.24L27 37.76V12a3 3 0 00-6 0v25.76l-8.88-8.88a3 3 0 00-4.24 4.24z"/><path d="M45.8 0H2.2A2.37 2.37 0 000 2.51v9A2.37 2.37 0 002.2 14H18v-2a6 6 0 0112 0v2h15.8a2.37 2.37 0 002.2-2.51v-9A2.37 2.37 0 0045.8 0zM36 9a2 2 0 112-2 2 2 0 01-2 2zm7 0a2 2 0 112-2 2 2 0 01-2 2z"/></symbol><symbol class="cghi-icons-sprite" viewBox="0 0 0 0" id="ghi-icons-sprite" xmlns="http://www.w3.org/2000/svg"/></svg>