<svg version="1.1" id="Layer_1" xmlns="http://www.w3.org/2000/svg" xmlns:xlink="http://www.w3.org/1999/xlink" x="0px" y="0px"
	 viewBox="0 0 1165.4 1369.7" style="enable-background:new 0 0 1165.4 1369.7;" xml:space="preserve">
<style type="text/css">
	.st0{fill:#4D4D4D;}
</style>
<path class="st0" d="M1165.4,364.2v850.8c0,49.7-40.4,90.1-90.1,90.1H750.5l49.6-50.4h275.2c21.9,0,39.7-17.8,39.7-39.7V399.4H817.2
	c-38.5,0-69.9-31.3-69.9-69.9V50.4h-531c-21.9,0-39.7,17.8-39.7,39.7v290.2h-50.4V90.1c0-49.7,40.4-90.1,90.1-90.1h561.3
	c6.4,0,12.5,2.4,17.2,6.8l362.6,338.9C1162.6,350.5,1165.4,357.2,1165.4,364.2z M216.4,1254.6c-21.9,0-39.7-17.8-39.7-39.7V728.4
	h-50.4v486.5c0,49.7,40.4,90.1,90.1,90.1h347.4l-49.6-50.4H216.4z M191,497.7c-7.2-4.5-17.9-6.8-32.1-6.8h-23.5V557h24.7
	c27.9,0,41.8-11.5,41.8-34.5C201.9,510.5,198.3,502.2,191,497.7z M634,707.2H16.3c-9,0-16.3-7.3-16.3-16.3v-273
	c0-9,7.3-16.3,16.3-16.3H634c9,0,16.3,7.3,16.3,16.3v273C650.3,699.9,643,707.2,634,707.2z M235,522.5c0-11-1.8-20.3-5.5-27.7
	c-3.7-7.4-8.8-13.5-15.4-18.1c-6.6-4.7-14.4-7.9-23.4-9.9c-9-1.9-18.7-2.9-29.2-2.9h-59.8v189.8h33.7V584h27.3
	c10.2,0,19.8-1.2,28.6-3.6c8.8-2.4,16.4-6.2,22.9-11.3c6.5-5.1,11.6-11.6,15.2-19.3C233.2,542,235,532.9,235,522.5z M413.8,557.9
	c0-31.3-8.1-54.8-24.4-70.5c-16.2-15.7-38.9-23.5-67.9-23.5h-50.8v189.8h52.5c14.1,0,26.7-2,37.9-6.1c11.1-4.1,20.6-10.1,28.4-18.1
	c7.8-8,13.8-18,18-30C411.7,587.4,413.8,573.5,413.8,557.9z M566.7,463.8H452.1v189.8h33.7v-79.2h69.1V546h-69.1v-53.7h81V463.8z
	 M319.2,491.1h-14.8v135.2h14.8c19.3,0,34.2-5.6,44.5-16.7c10.3-11.1,15.5-28.4,15.5-51.8c0-23.2-5.2-40.1-15.7-50.8
	C353.1,496.5,338.3,491.1,319.2,491.1z M847.5,1152h-90.6V859.8c0-5.5-4.5-10-10-10H567.5c-5.5,0-10,4.5-10,10V1152h-90.6
	c-8.9,0-13.3,10.7-7.1,17l197.4,200.6L854.6,1169C860.8,1162.7,856.3,1152,847.5,1152z"/>
</svg>
