<?xml version="1.0" encoding="utf-8"?>
<!-- Generator: Adobe Illustrator 26.3.1, SVG Export Plug-In . SVG Version: 6.00 Build 0)  -->
<svg version="1.1" id="Layer_1" xmlns="http://www.w3.org/2000/svg" xmlns:xlink="http://www.w3.org/1999/xlink" x="0px" y="0px"
	 viewBox="0 0 347.2 42.9" style="enable-background:new 0 0 347.2 42.9;" xml:space="preserve">
<style type="text/css">
	.st0{fill:none;stroke:#FECC07;stroke-width:3;}
	.st1{enable-background:new    ;}
	.st2{fill:#4D4D4E;}
</style>
<line id="Line_941" class="st0" x1="1.8" y1="0.9" x2="1.8" y2="42.9"/>
<g class="st1">
	<path class="st2" d="M19.1,17.4V1.7h3.5v6h5.4v-6h3.6v15.6h-3.6v-6.5h-5.4v6.5H19.1z"/>
	<path class="st2" d="M38.6,17.6c-1.3,0-2.2-0.4-2.8-1.3c-0.6-0.9-0.9-2-0.9-3.5V5.4h3.5v6.9c0,0.8,0.1,1.4,0.4,1.8
		c0.2,0.3,0.6,0.5,1.1,0.5c0.4,0,0.8-0.1,1.1-0.3c0.3-0.2,0.6-0.5,1-1V5.4h3.5v11.9h-2.9l-0.3-1.7h-0.1c-0.5,0.6-1,1.1-1.6,1.4
		C40.1,17.5,39.4,17.6,38.6,17.6z"/>
	<path class="st2" d="M48.7,17.4V5.4h2.9L51.8,7h0.1c0.5-0.5,1-0.9,1.6-1.3c0.6-0.4,1.2-0.5,2-0.5c0.8,0,1.5,0.2,2.1,0.5
		C58,6,58.5,6.5,58.8,7.2c0.5-0.5,1.1-1,1.7-1.4c0.6-0.4,1.3-0.6,2.1-0.6c1.3,0,2.2,0.4,2.8,1.3c0.6,0.9,0.9,2,0.9,3.5v7.4h-3.5
		v-6.9c0-0.9-0.1-1.5-0.3-1.8s-0.6-0.5-1.1-0.5c-0.6,0-1.3,0.4-2,1.2v8h-3.5v-6.9c0-0.9-0.1-1.5-0.3-1.8c-0.2-0.3-0.6-0.5-1.1-0.5
		c-0.6,0-1.3,0.4-2,1.2v8H48.7z"/>
	<path class="st2" d="M72.2,17.6c-1.1,0-2-0.3-2.6-1s-1-1.5-1-2.6c0-1.2,0.5-2.2,1.6-2.9c1.1-0.7,2.8-1.2,5.1-1.4
		c0-0.5-0.2-0.9-0.5-1.3C74.6,8.1,74.2,8,73.5,8c-0.5,0-1,0.1-1.5,0.3c-0.5,0.2-1.1,0.5-1.6,0.8l-1.3-2.3c0.8-0.5,1.6-0.8,2.4-1.1
		c0.9-0.3,1.7-0.4,2.7-0.4c1.5,0,2.7,0.4,3.5,1.3c0.8,0.9,1.2,2.2,1.2,4.1v6.8H76l-0.2-1.2h-0.1c-0.5,0.4-1,0.8-1.6,1.1
		C73.5,17.5,72.9,17.6,72.2,17.6z M73.4,14.9c0.4,0,0.7-0.1,1-0.3c0.3-0.2,0.6-0.4,0.9-0.7v-2.1c-1.2,0.2-2.1,0.4-2.6,0.8
		c-0.5,0.3-0.7,0.7-0.7,1.2c0,0.4,0.1,0.7,0.4,0.9C72.7,14.8,73,14.9,73.4,14.9z"/>
	<path class="st2" d="M81.9,17.4V5.4h2.9L85,7h0.1c0.5-0.5,1.1-0.9,1.7-1.3c0.6-0.4,1.3-0.5,2.1-0.5c1.3,0,2.2,0.4,2.8,1.3
		c0.6,0.9,0.9,2,0.9,3.5v7.4h-3.5v-6.9c0-0.9-0.1-1.5-0.3-1.8c-0.2-0.3-0.6-0.5-1.1-0.5c-0.4,0-0.8,0.1-1.2,0.3
		c-0.3,0.2-0.7,0.5-1.1,0.9v8H81.9z"/>
	<path class="st2" d="M97.4,3.7c-0.6,0-1.1-0.2-1.4-0.5c-0.4-0.3-0.6-0.8-0.6-1.3c0-0.6,0.2-1,0.6-1.3C96.3,0.2,96.8,0,97.4,0
		c0.6,0,1.1,0.2,1.4,0.5s0.6,0.8,0.6,1.3c0,0.6-0.2,1-0.6,1.3S97.9,3.7,97.4,3.7z M95.6,17.4V5.4h3.5v11.9H95.6z"/>
	<path class="st2" d="M106.8,17.6c-1.5,0-2.5-0.4-3.2-1.3c-0.6-0.8-0.9-2-0.9-3.3V8.2h-1.6V5.6l1.8-0.1l0.4-3.2h2.9v3.2h2.9v2.8
		h-2.9V13c0,0.7,0.1,1.2,0.4,1.5s0.7,0.4,1.1,0.4c0.2,0,0.4,0,0.6-0.1s0.4-0.1,0.5-0.2l0.6,2.6c-0.3,0.1-0.7,0.2-1.1,0.3
		C107.9,17.6,107.4,17.6,106.8,17.6z"/>
	<path class="st2" d="M113.9,17.6c-1.1,0-2-0.3-2.6-1s-1-1.5-1-2.6c0-1.2,0.5-2.2,1.6-2.9c1.1-0.7,2.8-1.2,5.1-1.4
		c0-0.5-0.2-0.9-0.5-1.3c-0.3-0.3-0.7-0.5-1.4-0.5c-0.5,0-1,0.1-1.5,0.3c-0.5,0.2-1.1,0.5-1.6,0.8l-1.3-2.3c0.8-0.5,1.6-0.8,2.4-1.1
		c0.9-0.3,1.7-0.4,2.7-0.4c1.5,0,2.7,0.4,3.5,1.3c0.8,0.9,1.2,2.2,1.2,4.1v6.8h-2.9l-0.2-1.2h-0.1c-0.5,0.4-1,0.8-1.6,1.1
		C115.2,17.5,114.6,17.6,113.9,17.6z M115.1,14.9c0.4,0,0.7-0.1,1-0.3c0.3-0.2,0.6-0.4,0.9-0.7v-2.1c-1.2,0.2-2.1,0.4-2.6,0.8
		c-0.5,0.3-0.7,0.7-0.7,1.2c0,0.4,0.1,0.7,0.4,0.9C114.4,14.8,114.7,14.9,115.1,14.9z"/>
	<path class="st2" d="M123.6,17.4V5.4h2.9l0.2,2.1h0.1c0.4-0.8,1-1.4,1.6-1.8c0.6-0.4,1.2-0.6,1.8-0.6c0.3,0,0.6,0,0.8,0.1
		c0.2,0,0.4,0.1,0.6,0.2l-0.6,3c-0.2-0.1-0.4-0.1-0.6-0.1c-0.2,0-0.4,0-0.7,0c-0.4,0-0.9,0.2-1.4,0.5s-0.9,0.9-1.2,1.7v6.9H123.6z"
		/>
	<path class="st2" d="M134.9,3.7c-0.6,0-1.1-0.2-1.4-0.5c-0.4-0.3-0.6-0.8-0.6-1.3c0-0.6,0.2-1,0.6-1.3c0.4-0.3,0.8-0.5,1.4-0.5
		c0.6,0,1.1,0.2,1.4,0.5s0.6,0.8,0.6,1.3c0,0.6-0.2,1-0.6,1.3S135.5,3.7,134.9,3.7z M133.1,17.4V5.4h3.5v11.9H133.1z"/>
	<path class="st2" d="M142.8,17.6c-1.1,0-2-0.3-2.6-1s-1-1.5-1-2.6c0-1.2,0.5-2.2,1.6-2.9c1.1-0.7,2.8-1.2,5.1-1.4
		c0-0.5-0.2-0.9-0.5-1.3C145.2,8.1,144.7,8,144,8c-0.5,0-1,0.1-1.5,0.3c-0.5,0.2-1.1,0.5-1.6,0.8l-1.3-2.3c0.8-0.5,1.6-0.8,2.4-1.1
		c0.9-0.3,1.7-0.4,2.7-0.4c1.5,0,2.7,0.4,3.5,1.3c0.8,0.9,1.2,2.2,1.2,4.1v6.8h-2.9l-0.2-1.2h-0.1c-0.5,0.4-1,0.8-1.6,1.1
		C144.1,17.5,143.4,17.6,142.8,17.6z M144,14.9c0.4,0,0.7-0.1,1-0.3c0.3-0.2,0.6-0.4,0.9-0.7v-2.1c-1.2,0.2-2.1,0.4-2.6,0.8
		c-0.5,0.3-0.7,0.7-0.7,1.2c0,0.4,0.1,0.7,0.4,0.9C143.2,14.8,143.5,14.9,144,14.9z"/>
	<path class="st2" d="M152.4,17.4V5.4h2.9l0.2,1.5h0.1c0.5-0.5,1.1-0.9,1.7-1.3c0.6-0.4,1.3-0.5,2.1-0.5c1.3,0,2.2,0.4,2.8,1.3
		c0.6,0.9,0.9,2,0.9,3.5v7.4h-3.5v-6.9c0-0.9-0.1-1.5-0.3-1.8c-0.2-0.3-0.6-0.5-1.1-0.5c-0.4,0-0.8,0.1-1.2,0.3
		c-0.3,0.2-0.7,0.5-1.1,0.9v8H152.4z"/>
</g>
<g class="st1">
	<path class="st2" d="M17.1,40.4L22,24.7h4.2l4.9,15.6h-3.7l-1-3.7h-4.8l-1,3.7H17.1z M22.8,32.4l-0.4,1.4h3.3l-0.4-1.4
		c-0.2-0.8-0.4-1.6-0.6-2.5c-0.2-0.9-0.4-1.7-0.6-2.5H24c-0.2,0.8-0.4,1.7-0.6,2.6C23.2,30.8,23,31.6,22.8,32.4z"/>
	<path class="st2" d="M37.8,40.6c-1.1,0-2.1-0.2-3-0.7c-0.9-0.5-1.6-1.2-2.1-2.1c-0.5-0.9-0.8-2.1-0.8-3.4c0-1.3,0.3-2.5,0.9-3.4
		s1.3-1.6,2.3-2.1s2-0.7,3-0.7c0.7,0,1.4,0.1,2,0.4c0.6,0.2,1.1,0.5,1.5,0.9l-1.7,2.3c-0.6-0.5-1.1-0.7-1.6-0.7
		c-0.8,0-1.5,0.3-2,0.9s-0.8,1.4-0.8,2.5c0,1,0.3,1.8,0.8,2.5c0.5,0.6,1.1,0.9,1.9,0.9c0.4,0,0.8-0.1,1.1-0.3s0.7-0.4,1-0.6l1.4,2.3
		c-0.6,0.5-1.2,0.9-1.9,1.1S38.4,40.6,37.8,40.6z"/>
	<path class="st2" d="M48.2,40.6c-1.5,0-2.5-0.4-3.2-1.3c-0.6-0.8-0.9-2-0.9-3.3v-4.8h-1.6v-2.6l1.8-0.1l0.4-3.2h2.9v3.2h2.9v2.8
		h-2.9V36c0,0.7,0.1,1.2,0.4,1.5s0.7,0.4,1.1,0.4c0.2,0,0.4,0,0.6-0.1s0.4-0.1,0.5-0.2l0.6,2.6c-0.3,0.1-0.7,0.2-1.1,0.3
		C49.2,40.6,48.7,40.6,48.2,40.6z"/>
	<path class="st2" d="M54.5,26.7c-0.6,0-1.1-0.2-1.4-0.5c-0.4-0.3-0.6-0.8-0.6-1.3c0-0.6,0.2-1,0.6-1.3c0.4-0.3,0.8-0.5,1.4-0.5
		c0.6,0,1.1,0.2,1.4,0.5s0.6,0.8,0.6,1.3c0,0.6-0.2,1-0.6,1.3S55.1,26.7,54.5,26.7z M52.8,40.4V28.4h3.5v11.9H52.8z"/>
	<path class="st2" d="M64.5,40.6c-1,0-2-0.2-2.8-0.7c-0.9-0.5-1.6-1.2-2.1-2.1c-0.5-0.9-0.8-2.1-0.8-3.4c0-1.3,0.3-2.5,0.8-3.4
		c0.5-0.9,1.3-1.6,2.1-2.1c0.9-0.5,1.8-0.7,2.8-0.7c1,0,2,0.2,2.8,0.7s1.6,1.2,2.1,2.1c0.5,0.9,0.8,2.1,0.8,3.4
		c0,1.3-0.3,2.4-0.8,3.4c-0.5,0.9-1.3,1.6-2.1,2.1C66.5,40.4,65.5,40.6,64.5,40.6z M64.5,37.8c0.7,0,1.3-0.3,1.6-0.9
		c0.4-0.6,0.6-1.4,0.6-2.5c0-1-0.2-1.9-0.6-2.5c-0.4-0.6-0.9-0.9-1.6-0.9c-0.7,0-1.3,0.3-1.6,0.9c-0.4,0.6-0.5,1.4-0.5,2.5
		c0,1,0.2,1.8,0.5,2.5C63.2,37.5,63.8,37.8,64.5,37.8z"/>
	<path class="st2" d="M72.7,40.4V28.4h2.9l0.2,1.5h0.1c0.5-0.5,1.1-0.9,1.7-1.3c0.6-0.4,1.3-0.5,2.1-0.5c1.3,0,2.2,0.4,2.8,1.3
		c0.6,0.9,0.9,2,0.9,3.5v7.4h-3.5v-6.9c0-0.9-0.1-1.5-0.3-1.8c-0.2-0.3-0.6-0.5-1.1-0.5c-0.4,0-0.8,0.1-1.2,0.3
		c-0.3,0.2-0.7,0.5-1.1,0.9v8H72.7z"/>
</g>
<g class="st1">
	<path class="st2" d="M182.7,10.9l2.4-7.2h1l2.4,7.2h-1l-0.7-2.2h-2.6l-0.7,2.2H182.7z M184.9,6.8l-0.3,1.1h2.2l-0.3-1.1
		c-0.1-0.4-0.3-0.8-0.4-1.2s-0.2-0.8-0.4-1.2h0c-0.1,0.4-0.2,0.8-0.3,1.2S185,6.4,184.9,6.8z"/>
	<path class="st2" d="M189.5,10.9V5.5h0.7l0.1,0.8h0c0.3-0.3,0.5-0.5,0.8-0.6c0.3-0.2,0.6-0.3,1-0.3c0.6,0,1,0.2,1.2,0.5
		c0.3,0.4,0.4,0.9,0.4,1.6v3.4h-0.9V7.6c0-0.5-0.1-0.9-0.2-1.1c-0.2-0.2-0.4-0.3-0.8-0.3c-0.3,0-0.5,0.1-0.7,0.2
		c-0.2,0.1-0.5,0.3-0.7,0.6v3.9H189.5z"/>
	<path class="st2" d="M199.9,11c-0.5,0-0.9-0.1-1.3-0.3s-0.7-0.5-0.9-1c-0.2-0.4-0.3-0.9-0.3-1.5c0-0.6,0.1-1.1,0.3-1.5
		c0.2-0.4,0.5-0.7,0.9-1c0.4-0.2,0.8-0.3,1.2-0.3c0.7,0,1.2,0.2,1.6,0.7s0.6,1.1,0.6,1.8c0,0.1,0,0.2,0,0.3c0,0.1,0,0.2,0,0.2h-3.6
		c0,0.6,0.2,1,0.5,1.4c0.3,0.3,0.7,0.5,1.2,0.5c0.3,0,0.5,0,0.7-0.1c0.2-0.1,0.4-0.2,0.6-0.3l0.3,0.6c-0.2,0.1-0.5,0.3-0.8,0.4
		C200.6,10.9,200.3,11,199.9,11z M198.2,7.8h2.9c0-0.5-0.1-1-0.3-1.2c-0.2-0.3-0.6-0.4-1-0.4c-0.4,0-0.7,0.1-1,0.4
		C198.4,6.8,198.3,7.2,198.2,7.8z"/>
	<path class="st2" d="M204.4,10.9l-1.9-5.3h0.9l1,3c0.1,0.3,0.2,0.5,0.2,0.8c0.1,0.3,0.2,0.5,0.2,0.8h0c0.1-0.3,0.2-0.5,0.2-0.8
		c0.1-0.3,0.2-0.5,0.2-0.8l1-3h0.9l-1.9,5.3H204.4z"/>
	<path class="st2" d="M208.8,4.4c-0.2,0-0.3-0.1-0.4-0.2c-0.1-0.1-0.2-0.3-0.2-0.4c0-0.2,0.1-0.3,0.2-0.4c0.1-0.1,0.3-0.2,0.4-0.2
		c0.2,0,0.3,0.1,0.4,0.2c0.1,0.1,0.2,0.3,0.2,0.4c0,0.2-0.1,0.3-0.2,0.4C209.2,4.4,209,4.4,208.8,4.4z M208.4,10.9V5.5h0.9v5.3
		H208.4z"/>
	<path class="st2" d="M212.9,11c-0.7,0-1.2-0.2-1.6-0.7c-0.4-0.5-0.6-1.2-0.6-2.1c0-0.6,0.1-1.1,0.3-1.5c0.2-0.4,0.5-0.7,0.9-1
		c0.4-0.2,0.7-0.3,1.1-0.3c0.3,0,0.6,0.1,0.8,0.2c0.2,0.1,0.5,0.3,0.7,0.5l0-0.9V3h0.9v7.8h-0.7l-0.1-0.6h0
		c-0.2,0.2-0.4,0.4-0.7,0.5S213.2,11,212.9,11z M213.1,10.2c0.5,0,0.9-0.2,1.4-0.7V6.7c-0.2-0.2-0.4-0.3-0.7-0.4
		c-0.2-0.1-0.4-0.1-0.6-0.1c-0.3,0-0.5,0.1-0.8,0.3c-0.2,0.2-0.4,0.4-0.6,0.7c-0.1,0.3-0.2,0.7-0.2,1.1c0,0.6,0.1,1.1,0.4,1.5
		C212.3,10,212.6,10.2,213.1,10.2z"/>
	<path class="st2" d="M219.3,11c-0.5,0-0.9-0.1-1.3-0.3s-0.7-0.5-0.9-1s-0.3-0.9-0.3-1.5c0-0.6,0.1-1.1,0.3-1.5
		c0.2-0.4,0.5-0.7,0.9-1c0.4-0.2,0.8-0.3,1.2-0.3c0.7,0,1.2,0.2,1.6,0.7s0.6,1.1,0.6,1.8c0,0.1,0,0.2,0,0.3s0,0.2,0,0.2h-3.6
		c0,0.6,0.2,1,0.5,1.4c0.3,0.3,0.7,0.5,1.2,0.5c0.3,0,0.5,0,0.7-0.1c0.2-0.1,0.4-0.2,0.6-0.3l0.3,0.6c-0.2,0.1-0.5,0.3-0.8,0.4
		C220,10.9,219.7,11,219.3,11z M217.7,7.8h2.9c0-0.5-0.1-1-0.3-1.2c-0.2-0.3-0.6-0.4-1-0.4c-0.4,0-0.7,0.1-1,0.4
		C217.9,6.8,217.7,7.2,217.7,7.8z"/>
	<path class="st2" d="M222.6,10.9V5.5h0.7l0.1,0.8h0c0.3-0.3,0.5-0.5,0.8-0.6c0.3-0.2,0.6-0.3,1-0.3c0.6,0,1,0.2,1.2,0.5
		c0.3,0.4,0.4,0.9,0.4,1.6v3.4H226V7.6c0-0.5-0.1-0.9-0.2-1.1c-0.2-0.2-0.4-0.3-0.8-0.3c-0.3,0-0.5,0.1-0.7,0.2
		c-0.2,0.1-0.5,0.3-0.7,0.6v3.9H222.6z"/>
	<path class="st2" d="M230.8,11c-0.5,0-0.9-0.1-1.3-0.3c-0.4-0.2-0.7-0.5-0.9-1c-0.2-0.4-0.3-0.9-0.3-1.5c0-0.6,0.1-1.1,0.4-1.5
		s0.6-0.7,0.9-1c0.4-0.2,0.8-0.3,1.3-0.3c0.4,0,0.7,0.1,0.9,0.2c0.3,0.1,0.5,0.3,0.7,0.4l-0.5,0.6c-0.2-0.1-0.3-0.3-0.5-0.3
		c-0.2-0.1-0.4-0.1-0.6-0.1c-0.3,0-0.6,0.1-0.9,0.3c-0.3,0.2-0.5,0.4-0.6,0.7c-0.1,0.3-0.2,0.7-0.2,1.1c0,0.6,0.2,1.1,0.5,1.5
		c0.3,0.4,0.7,0.6,1.2,0.6c0.2,0,0.5-0.1,0.7-0.2s0.4-0.2,0.6-0.4l0.4,0.6c-0.2,0.2-0.5,0.4-0.8,0.5C231.4,10.9,231.1,11,230.8,11z"
		/>
	<path class="st2" d="M235.6,11c-0.5,0-0.9-0.1-1.3-0.3s-0.7-0.5-0.9-1S233,8.8,233,8.2c0-0.6,0.1-1.1,0.3-1.5
		c0.2-0.4,0.5-0.7,0.9-1c0.4-0.2,0.8-0.3,1.2-0.3c0.7,0,1.2,0.2,1.6,0.7s0.6,1.1,0.6,1.8c0,0.1,0,0.2,0,0.3s0,0.2,0,0.2h-3.6
		c0,0.6,0.2,1,0.5,1.4c0.3,0.3,0.7,0.5,1.2,0.5c0.3,0,0.5,0,0.7-0.1c0.2-0.1,0.4-0.2,0.6-0.3l0.3,0.6c-0.2,0.1-0.5,0.3-0.8,0.4
		C236.3,10.9,236,11,235.6,11z M233.9,7.8h2.9c0-0.5-0.1-1-0.3-1.2c-0.2-0.3-0.6-0.4-1-0.4c-0.4,0-0.7,0.1-1,0.4
		C234.2,6.8,234,7.2,233.9,7.8z"/>
	<path class="st2" d="M238.6,8.4V7.8h2.5v0.7H238.6z"/>
	<path class="st2" d="M244.8,11c-0.2,0-0.5-0.1-0.8-0.2c-0.3-0.1-0.5-0.3-0.8-0.5h0l-0.1,0.5h-0.7V3h0.9v2.1l0,1
		c0.2-0.2,0.5-0.4,0.8-0.5c0.3-0.1,0.6-0.2,0.9-0.2c0.7,0,1.2,0.2,1.6,0.7s0.5,1.2,0.5,2c0,0.6-0.1,1.1-0.3,1.6
		c-0.2,0.4-0.5,0.8-0.8,1C245.6,10.9,245.2,11,244.8,11z M244.6,10.2c0.4,0,0.8-0.2,1.1-0.6c0.3-0.4,0.4-0.9,0.4-1.6
		c0-0.6-0.1-1.1-0.3-1.4c-0.2-0.4-0.6-0.5-1.1-0.5c-0.2,0-0.5,0.1-0.7,0.2c-0.2,0.1-0.5,0.3-0.7,0.5v2.8c0.2,0.2,0.5,0.4,0.7,0.4
		C244.3,10.2,244.5,10.2,244.6,10.2z"/>
	<path class="st2" d="M249.6,11c-0.4,0-0.8-0.1-1.1-0.4S248,9.9,248,9.5c0-0.6,0.3-1,0.8-1.3s1.4-0.5,2.5-0.7c0-0.2,0-0.4-0.1-0.6
		c-0.1-0.2-0.2-0.4-0.3-0.5c-0.2-0.1-0.4-0.2-0.7-0.2c-0.3,0-0.6,0.1-0.9,0.2s-0.5,0.2-0.7,0.4l-0.4-0.6c0.2-0.2,0.6-0.3,0.9-0.5
		c0.4-0.1,0.8-0.2,1.2-0.2c0.7,0,1.1,0.2,1.4,0.6c0.3,0.4,0.4,0.9,0.4,1.6v3.3h-0.7l-0.1-0.6h0c-0.2,0.2-0.5,0.4-0.8,0.5
		C250.2,10.9,249.9,11,249.6,11z M249.9,10.3c0.3,0,0.5-0.1,0.7-0.2c0.2-0.1,0.5-0.3,0.7-0.5V8.1c-0.9,0.1-1.5,0.3-1.9,0.5
		s-0.5,0.5-0.5,0.8c0,0.3,0.1,0.5,0.3,0.7S249.6,10.3,249.9,10.3z"/>
	<path class="st2" d="M255.3,11c-0.4,0-0.7-0.1-1.1-0.2c-0.3-0.1-0.6-0.3-0.9-0.5l0.5-0.6c0.2,0.2,0.5,0.3,0.7,0.5
		c0.2,0.1,0.5,0.2,0.8,0.2c0.4,0,0.6-0.1,0.8-0.2s0.3-0.4,0.3-0.6c0-0.2-0.1-0.3-0.2-0.5c-0.1-0.1-0.3-0.2-0.5-0.3
		c-0.2-0.1-0.4-0.2-0.6-0.2c-0.2-0.1-0.5-0.2-0.7-0.3s-0.4-0.3-0.6-0.5s-0.2-0.4-0.2-0.7c0-0.4,0.2-0.8,0.5-1.1
		c0.3-0.3,0.8-0.4,1.4-0.4c0.3,0,0.6,0.1,0.9,0.2s0.5,0.3,0.7,0.4l-0.4,0.6c-0.2-0.1-0.4-0.3-0.6-0.3c-0.2-0.1-0.4-0.1-0.6-0.1
		c-0.3,0-0.6,0.1-0.7,0.2c-0.2,0.2-0.2,0.3-0.2,0.5c0,0.2,0.1,0.3,0.2,0.4c0.1,0.1,0.3,0.2,0.4,0.3c0.2,0.1,0.4,0.2,0.6,0.2
		c0.3,0.1,0.5,0.2,0.8,0.3s0.5,0.3,0.6,0.5c0.2,0.2,0.2,0.5,0.2,0.8c0,0.3-0.1,0.5-0.2,0.8s-0.4,0.4-0.7,0.6S255.7,11,255.3,11z"/>
	<path class="st2" d="M260.7,11c-0.5,0-0.9-0.1-1.3-0.3s-0.7-0.5-0.9-1c-0.2-0.4-0.3-0.9-0.3-1.5c0-0.6,0.1-1.1,0.3-1.5
		c0.2-0.4,0.5-0.7,0.9-1c0.4-0.2,0.8-0.3,1.2-0.3c0.7,0,1.2,0.2,1.6,0.7s0.6,1.1,0.6,1.8c0,0.1,0,0.2,0,0.3c0,0.1,0,0.2,0,0.2H259
		c0,0.6,0.2,1,0.5,1.4c0.3,0.3,0.7,0.5,1.2,0.5c0.3,0,0.5,0,0.7-0.1c0.2-0.1,0.4-0.2,0.6-0.3l0.3,0.6c-0.2,0.1-0.5,0.3-0.8,0.4
		C261.4,10.9,261,11,260.7,11z M259,7.8h2.9c0-0.5-0.1-1-0.3-1.2c-0.2-0.3-0.6-0.4-1-0.4c-0.4,0-0.7,0.1-1,0.4
		C259.2,6.8,259.1,7.2,259,7.8z"/>
	<path class="st2" d="M265.8,11c-0.7,0-1.2-0.2-1.6-0.7c-0.4-0.5-0.6-1.2-0.6-2.1c0-0.6,0.1-1.1,0.3-1.5c0.2-0.4,0.5-0.7,0.9-1
		s0.7-0.3,1.1-0.3c0.3,0,0.6,0.1,0.8,0.2c0.2,0.1,0.5,0.3,0.7,0.5l0-0.9V3h0.9v7.8h-0.7l-0.1-0.6h0c-0.2,0.2-0.4,0.4-0.7,0.5
		C266.4,10.9,266.1,11,265.8,11z M266,10.2c0.5,0,0.9-0.2,1.4-0.7V6.7c-0.2-0.2-0.4-0.3-0.7-0.4c-0.2-0.1-0.4-0.1-0.6-0.1
		c-0.3,0-0.5,0.1-0.8,0.3c-0.2,0.2-0.4,0.4-0.6,0.7c-0.1,0.3-0.2,0.7-0.2,1.1c0,0.6,0.1,1.1,0.4,1.5C265.2,10,265.5,10.2,266,10.2z"
		/>
	<path class="st2" d="M274.3,11c-0.4,0-0.8-0.1-1.2-0.3c-0.4-0.2-0.7-0.5-0.9-1c-0.2-0.4-0.3-0.9-0.3-1.5c0-0.6,0.1-1.1,0.3-1.5
		c0.2-0.4,0.5-0.7,0.9-1c0.4-0.2,0.8-0.3,1.2-0.3c0.4,0,0.8,0.1,1.2,0.3c0.4,0.2,0.7,0.5,0.9,1c0.2,0.4,0.3,0.9,0.3,1.5
		c0,0.6-0.1,1.1-0.3,1.5c-0.2,0.4-0.5,0.7-0.9,1C275.2,10.9,274.8,11,274.3,11z M274.3,10.2c0.5,0,0.8-0.2,1.1-0.6s0.4-0.9,0.4-1.5
		c0-0.6-0.1-1.1-0.4-1.5c-0.3-0.4-0.7-0.6-1.1-0.6c-0.5,0-0.8,0.2-1.1,0.6c-0.3,0.4-0.4,0.9-0.4,1.5c0,0.6,0.1,1.1,0.4,1.5
		S273.9,10.2,274.3,10.2z"/>
	<path class="st2" d="M279.3,10.9l-1.9-5.3h0.9l1,3c0.1,0.3,0.2,0.5,0.2,0.8c0.1,0.3,0.2,0.5,0.2,0.8h0c0.1-0.3,0.2-0.5,0.2-0.8
		c0.1-0.3,0.2-0.5,0.2-0.8l1-3h0.9l-1.9,5.3H279.3z"/>
	<path class="st2" d="M285.4,11c-0.5,0-0.9-0.1-1.3-0.3s-0.7-0.5-0.9-1c-0.2-0.4-0.3-0.9-0.3-1.5c0-0.6,0.1-1.1,0.3-1.5
		c0.2-0.4,0.5-0.7,0.9-1c0.4-0.2,0.8-0.3,1.2-0.3c0.7,0,1.2,0.2,1.6,0.7s0.6,1.1,0.6,1.8c0,0.1,0,0.2,0,0.3c0,0.1,0,0.2,0,0.2h-3.6
		c0,0.6,0.2,1,0.5,1.4c0.3,0.3,0.7,0.5,1.2,0.5c0.3,0,0.5,0,0.7-0.1c0.2-0.1,0.4-0.2,0.6-0.3l0.3,0.6c-0.2,0.1-0.5,0.3-0.8,0.4
		C286.1,10.9,285.8,11,285.4,11z M283.8,7.8h2.9c0-0.5-0.1-1-0.3-1.2c-0.2-0.3-0.6-0.4-1-0.4c-0.4,0-0.7,0.1-1,0.4
		C284,6.8,283.8,7.2,283.8,7.8z"/>
	<path class="st2" d="M288.7,10.9V5.5h0.7l0.1,1h0c0.2-0.3,0.4-0.6,0.7-0.8c0.3-0.2,0.5-0.3,0.8-0.3c0.2,0,0.4,0,0.6,0.1l-0.2,0.8
		c-0.1,0-0.2-0.1-0.2-0.1c-0.1,0-0.2,0-0.3,0c-0.2,0-0.5,0.1-0.7,0.3c-0.2,0.2-0.5,0.5-0.6,1v3.4H288.7z"/>
	<path class="st2" d="M294,10.9l-1.9-5.3h0.9l1,3c0.1,0.3,0.2,0.5,0.2,0.8c0.1,0.3,0.2,0.5,0.2,0.8h0c0.1-0.3,0.2-0.5,0.2-0.8
		c0.1-0.3,0.2-0.5,0.2-0.8l1-3h0.9l-1.9,5.3H294z"/>
	<path class="st2" d="M298.4,4.4c-0.2,0-0.3-0.1-0.4-0.2s-0.2-0.3-0.2-0.4c0-0.2,0.1-0.3,0.2-0.4c0.1-0.1,0.3-0.2,0.4-0.2
		s0.3,0.1,0.4,0.2c0.1,0.1,0.2,0.3,0.2,0.4c0,0.2-0.1,0.3-0.2,0.4C298.7,4.4,298.6,4.4,298.4,4.4z M298,10.9V5.5h0.9v5.3H298z"/>
	<path class="st2" d="M302.8,11c-0.5,0-0.9-0.1-1.3-0.3s-0.7-0.5-0.9-1c-0.2-0.4-0.3-0.9-0.3-1.5c0-0.6,0.1-1.1,0.3-1.5
		c0.2-0.4,0.5-0.7,0.9-1c0.4-0.2,0.8-0.3,1.2-0.3c0.7,0,1.2,0.2,1.6,0.7s0.6,1.1,0.6,1.8c0,0.1,0,0.2,0,0.3c0,0.1,0,0.2,0,0.2h-3.6
		c0,0.6,0.2,1,0.5,1.4c0.3,0.3,0.7,0.5,1.2,0.5c0.3,0,0.5,0,0.7-0.1c0.2-0.1,0.4-0.2,0.6-0.3l0.3,0.6c-0.2,0.1-0.5,0.3-0.8,0.4
		C303.5,10.9,303.2,11,302.8,11z M301.2,7.8h2.9c0-0.5-0.1-1-0.3-1.2c-0.2-0.3-0.6-0.4-1-0.4c-0.4,0-0.7,0.1-1,0.4
		C301.4,6.8,301.2,7.2,301.2,7.8z"/>
	<path class="st2" d="M307,10.9l-1.5-5.3h0.9l0.8,3.1c0.1,0.2,0.1,0.5,0.2,0.7c0.1,0.2,0.1,0.5,0.2,0.7h0c0.1-0.2,0.1-0.5,0.2-0.7
		c0.1-0.2,0.1-0.5,0.2-0.7l0.8-3.1h0.9l0.8,3.1c0.1,0.2,0.1,0.5,0.2,0.7c0.1,0.2,0.1,0.5,0.2,0.7h0c0.1-0.2,0.1-0.5,0.2-0.7
		c0.1-0.2,0.1-0.5,0.2-0.7l0.8-3.1h0.9l-1.4,5.3h-1.1L309.6,8c-0.1-0.3-0.1-0.5-0.2-0.8c-0.1-0.2-0.1-0.5-0.2-0.8h0
		c-0.1,0.3-0.1,0.5-0.2,0.8c-0.1,0.3-0.1,0.5-0.2,0.8l-0.7,2.9H307z"/>
	<path class="st2" d="M318.4,11c-0.4,0-0.8-0.1-1.2-0.3c-0.4-0.2-0.7-0.5-0.9-1c-0.2-0.4-0.3-0.9-0.3-1.5c0-0.6,0.1-1.1,0.3-1.5
		c0.2-0.4,0.5-0.7,0.9-1c0.4-0.2,0.8-0.3,1.2-0.3c0.4,0,0.8,0.1,1.2,0.3c0.4,0.2,0.7,0.5,0.9,1c0.2,0.4,0.3,0.9,0.3,1.5
		c0,0.6-0.1,1.1-0.3,1.5c-0.2,0.4-0.5,0.7-0.9,1C319.2,10.9,318.8,11,318.4,11z M318.4,10.2c0.5,0,0.8-0.2,1.1-0.6s0.4-0.9,0.4-1.5
		c0-0.6-0.1-1.1-0.4-1.5c-0.3-0.4-0.7-0.6-1.1-0.6c-0.5,0-0.8,0.2-1.1,0.6c-0.3,0.4-0.4,0.9-0.4,1.5c0,0.6,0.1,1.1,0.4,1.5
		S317.9,10.2,318.4,10.2z"/>
	<path class="st2" d="M322.4,10.9V6.2h-0.7V5.6l0.7-0.1V4.7c0-0.5,0.1-1,0.4-1.3s0.6-0.5,1.2-0.5c0.2,0,0.3,0,0.5,0
		c0.2,0,0.3,0.1,0.4,0.1l-0.2,0.7c-0.2-0.1-0.4-0.1-0.6-0.1c-0.5,0-0.7,0.3-0.7,1v0.8h1.1v0.7h-1.1v4.6H322.4z"/>
	<path class="st2" d="M329.3,11c-0.6,0-1-0.2-1.2-0.5c-0.2-0.3-0.3-0.8-0.3-1.3v-3H327V5.6l0.8-0.1L328,4h0.8v1.5h1.4v0.7h-1.4v3
		c0,0.3,0.1,0.6,0.2,0.8s0.3,0.3,0.6,0.3c0.1,0,0.2,0,0.3,0c0.1,0,0.2-0.1,0.3-0.1l0.2,0.7c-0.1,0.1-0.3,0.1-0.5,0.1
		C329.7,11,329.5,11,329.3,11z"/>
	<path class="st2" d="M331.4,10.9V3h0.9v2.1l0,1.1c0.3-0.2,0.5-0.4,0.8-0.6c0.3-0.2,0.6-0.3,1-0.3c0.6,0,1,0.2,1.2,0.5
		c0.3,0.4,0.4,0.9,0.4,1.6v3.4h-0.9V7.6c0-0.5-0.1-0.9-0.2-1.1c-0.2-0.2-0.4-0.3-0.8-0.3c-0.3,0-0.5,0.1-0.7,0.2
		c-0.2,0.1-0.5,0.3-0.7,0.6v3.9H331.4z"/>
	<path class="st2" d="M339.5,11c-0.5,0-0.9-0.1-1.3-0.3s-0.7-0.5-0.9-1S337,8.8,337,8.2c0-0.6,0.1-1.1,0.3-1.5
		c0.2-0.4,0.5-0.7,0.9-1c0.4-0.2,0.8-0.3,1.2-0.3c0.7,0,1.2,0.2,1.6,0.7s0.6,1.1,0.6,1.8c0,0.1,0,0.2,0,0.3s0,0.2,0,0.2h-3.6
		c0,0.6,0.2,1,0.5,1.4c0.3,0.3,0.7,0.5,1.2,0.5c0.3,0,0.5,0,0.7-0.1c0.2-0.1,0.4-0.2,0.6-0.3l0.3,0.6c-0.2,0.1-0.5,0.3-0.8,0.4
		C340.2,10.9,339.9,11,339.5,11z M337.8,7.8h2.9c0-0.5-0.1-1-0.3-1.2c-0.2-0.3-0.6-0.4-1-0.4c-0.4,0-0.7,0.1-1,0.4
		C338.1,6.8,337.9,7.2,337.8,7.8z"/>
</g>
<g class="st1">
	<path class="st2" d="M183.5,25.9V18h0.9v2.1l0,1.1c0.3-0.2,0.5-0.4,0.8-0.6c0.3-0.2,0.6-0.3,1-0.3c0.6,0,1,0.2,1.2,0.5
		c0.3,0.4,0.4,0.9,0.4,1.6v3.4h-0.9v-3.3c0-0.5-0.1-0.9-0.2-1.1c-0.2-0.2-0.4-0.3-0.8-0.3c-0.3,0-0.5,0.1-0.7,0.2
		c-0.2,0.1-0.5,0.3-0.7,0.6v3.9H183.5z"/>
	<path class="st2" d="M191.1,26c-0.6,0-1-0.2-1.2-0.5c-0.3-0.4-0.4-0.9-0.4-1.6v-3.4h0.9v3.3c0,0.5,0.1,0.9,0.2,1.1
		c0.2,0.2,0.4,0.3,0.8,0.3c0.3,0,0.5-0.1,0.7-0.2c0.2-0.1,0.4-0.4,0.7-0.7v-3.8h0.9v5.3h-0.7l-0.1-0.8h0c-0.2,0.3-0.5,0.5-0.8,0.7
		C191.8,25.9,191.4,26,191.1,26z"/>
	<path class="st2" d="M195.5,25.9v-5.3h0.7l0.1,0.8h0c0.2-0.3,0.5-0.5,0.8-0.6c0.3-0.2,0.6-0.3,0.9-0.3c0.4,0,0.7,0.1,1,0.3
		c0.2,0.2,0.4,0.4,0.5,0.8c0.3-0.3,0.6-0.5,0.8-0.7c0.3-0.2,0.6-0.3,0.9-0.3c0.6,0,1,0.2,1.2,0.5s0.4,0.9,0.4,1.6v3.4H202v-3.3
		c0-0.5-0.1-0.9-0.2-1.1c-0.2-0.2-0.4-0.3-0.7-0.3c-0.4,0-0.8,0.3-1.3,0.8v3.9h-0.9v-3.3c0-0.5-0.1-0.9-0.2-1.1
		c-0.2-0.2-0.4-0.3-0.8-0.3c-0.4,0-0.8,0.3-1.3,0.8v3.9H195.5z"/>
	<path class="st2" d="M205.8,26c-0.4,0-0.8-0.1-1.1-0.4s-0.4-0.6-0.4-1.1c0-0.6,0.3-1,0.8-1.3s1.4-0.5,2.5-0.7c0-0.2,0-0.4-0.1-0.6
		c-0.1-0.2-0.2-0.4-0.3-0.5c-0.2-0.1-0.4-0.2-0.7-0.2c-0.3,0-0.6,0.1-0.9,0.2s-0.5,0.2-0.7,0.4l-0.4-0.6c0.2-0.2,0.6-0.3,0.9-0.5
		c0.4-0.1,0.8-0.2,1.2-0.2c0.7,0,1.1,0.2,1.4,0.6c0.3,0.4,0.4,0.9,0.4,1.6v3.3h-0.7l-0.1-0.6h0c-0.2,0.2-0.5,0.4-0.8,0.5
		C206.5,25.9,206.2,26,205.8,26z M206.1,25.3c0.3,0,0.5-0.1,0.7-0.2c0.2-0.1,0.5-0.3,0.7-0.5v-1.5c-0.9,0.1-1.5,0.3-1.9,0.5
		s-0.5,0.5-0.5,0.8c0,0.3,0.1,0.5,0.3,0.7S205.8,25.3,206.1,25.3z"/>
	<path class="st2" d="M210.2,25.9v-5.3h0.7l0.1,0.8h0c0.3-0.3,0.5-0.5,0.8-0.6c0.3-0.2,0.6-0.3,1-0.3c0.6,0,1,0.2,1.2,0.5
		c0.3,0.4,0.4,0.9,0.4,1.6v3.4h-0.9v-3.3c0-0.5-0.1-0.9-0.2-1.1c-0.2-0.2-0.4-0.3-0.8-0.3c-0.3,0-0.5,0.1-0.7,0.2
		c-0.2,0.1-0.5,0.3-0.7,0.6v3.9H210.2z"/>
	<path class="st2" d="M216.6,19.4c-0.2,0-0.3-0.1-0.4-0.2c-0.1-0.1-0.2-0.3-0.2-0.4c0-0.2,0.1-0.3,0.2-0.4c0.1-0.1,0.3-0.2,0.4-0.2
		c0.2,0,0.3,0.1,0.4,0.2c0.1,0.1,0.2,0.3,0.2,0.4c0,0.2-0.1,0.3-0.2,0.4C217,19.4,216.8,19.4,216.6,19.4z M216.2,25.9v-5.3h0.9v5.3
		H216.2z"/>
	<path class="st2" d="M220.6,26c-0.6,0-1-0.2-1.2-0.5c-0.2-0.3-0.3-0.8-0.3-1.3v-3h-0.8v-0.7l0.8-0.1l0.1-1.5h0.8v1.5h1.4v0.7h-1.4
		v3c0,0.3,0.1,0.6,0.2,0.8s0.3,0.3,0.6,0.3c0.1,0,0.2,0,0.3,0c0.1,0,0.2-0.1,0.3-0.1l0.2,0.7c-0.1,0.1-0.3,0.1-0.5,0.1
		C220.9,26,220.7,26,220.6,26z"/>
	<path class="st2" d="M223.6,26c-0.4,0-0.8-0.1-1.1-0.4s-0.4-0.6-0.4-1.1c0-0.6,0.3-1,0.8-1.3s1.4-0.5,2.5-0.7c0-0.2,0-0.4-0.1-0.6
		s-0.2-0.4-0.3-0.5c-0.2-0.1-0.4-0.2-0.7-0.2c-0.3,0-0.6,0.1-0.9,0.2s-0.5,0.2-0.7,0.4l-0.4-0.6c0.2-0.2,0.6-0.3,0.9-0.5
		c0.4-0.1,0.8-0.2,1.2-0.2c0.7,0,1.1,0.2,1.4,0.6c0.3,0.4,0.4,0.9,0.4,1.6v3.3h-0.7l-0.1-0.6h0c-0.2,0.2-0.5,0.4-0.8,0.5
		C224.2,25.9,223.9,26,223.6,26z M223.9,25.3c0.3,0,0.5-0.1,0.7-0.2c0.2-0.1,0.5-0.3,0.7-0.5v-1.5c-0.9,0.1-1.5,0.3-1.9,0.5
		c-0.4,0.2-0.5,0.5-0.5,0.8c0,0.3,0.1,0.5,0.3,0.7C223.4,25.2,223.6,25.3,223.9,25.3z"/>
	<path class="st2" d="M227.9,25.9v-5.3h0.7l0.1,1h0c0.2-0.3,0.4-0.6,0.7-0.8c0.3-0.2,0.5-0.3,0.8-0.3c0.2,0,0.4,0,0.6,0.1l-0.2,0.8
		c-0.1,0-0.2-0.1-0.2-0.1s-0.2,0-0.3,0c-0.2,0-0.5,0.1-0.7,0.3c-0.2,0.2-0.5,0.5-0.6,1v3.4H227.9z"/>
	<path class="st2" d="M232.2,19.4c-0.2,0-0.3-0.1-0.4-0.2c-0.1-0.1-0.2-0.3-0.2-0.4c0-0.2,0.1-0.3,0.2-0.4c0.1-0.1,0.3-0.2,0.4-0.2
		c0.2,0,0.3,0.1,0.4,0.2c0.1,0.1,0.2,0.3,0.2,0.4c0,0.2-0.1,0.3-0.2,0.4C232.5,19.4,232.4,19.4,232.2,19.4z M231.7,25.9v-5.3h0.9
		v5.3H231.7z"/>
	<path class="st2" d="M235.7,26c-0.4,0-0.8-0.1-1.1-0.4s-0.4-0.6-0.4-1.1c0-0.6,0.3-1,0.8-1.3s1.4-0.5,2.5-0.7c0-0.2,0-0.4-0.1-0.6
		c-0.1-0.2-0.2-0.4-0.3-0.5c-0.2-0.1-0.4-0.2-0.7-0.2c-0.3,0-0.6,0.1-0.9,0.2s-0.5,0.2-0.7,0.4l-0.4-0.6c0.2-0.2,0.6-0.3,0.9-0.5
		c0.4-0.1,0.8-0.2,1.2-0.2c0.7,0,1.1,0.2,1.4,0.6c0.3,0.4,0.4,0.9,0.4,1.6v3.3h-0.7l-0.1-0.6h0c-0.2,0.2-0.5,0.4-0.8,0.5
		C236.3,25.9,236,26,235.7,26z M235.9,25.3c0.3,0,0.5-0.1,0.7-0.2c0.2-0.1,0.5-0.3,0.7-0.5v-1.5c-0.9,0.1-1.5,0.3-1.9,0.5
		s-0.5,0.5-0.5,0.8c0,0.3,0.1,0.5,0.3,0.7S235.7,25.3,235.9,25.3z"/>
	<path class="st2" d="M240,25.9v-5.3h0.7l0.1,0.8h0c0.3-0.3,0.5-0.5,0.8-0.6c0.3-0.2,0.6-0.3,1-0.3c0.6,0,1,0.2,1.2,0.5
		c0.3,0.4,0.4,0.9,0.4,1.6v3.4h-0.9v-3.3c0-0.5-0.1-0.9-0.2-1.1c-0.2-0.2-0.4-0.3-0.8-0.3c-0.3,0-0.5,0.1-0.7,0.2
		c-0.2,0.1-0.5,0.3-0.7,0.6v3.9H240z"/>
	<path class="st2" d="M248.2,25.9v-5.3h0.7l0.1,1h0c0.2-0.3,0.4-0.6,0.7-0.8c0.3-0.2,0.5-0.3,0.8-0.3c0.2,0,0.4,0,0.6,0.1l-0.2,0.8
		c-0.1,0-0.2-0.1-0.2-0.1s-0.2,0-0.3,0c-0.2,0-0.5,0.1-0.7,0.3c-0.2,0.2-0.5,0.5-0.6,1v3.4H248.2z"/>
	<path class="st2" d="M254.1,26c-0.5,0-0.9-0.1-1.3-0.3s-0.7-0.5-0.9-1s-0.3-0.9-0.3-1.5c0-0.6,0.1-1.1,0.3-1.5
		c0.2-0.4,0.5-0.7,0.9-1c0.4-0.2,0.8-0.3,1.2-0.3c0.7,0,1.2,0.2,1.6,0.7s0.6,1.1,0.6,1.8c0,0.1,0,0.2,0,0.3s0,0.2,0,0.2h-3.6
		c0,0.6,0.2,1,0.5,1.4c0.3,0.3,0.7,0.5,1.2,0.5c0.3,0,0.5,0,0.7-0.1c0.2-0.1,0.4-0.2,0.6-0.3l0.3,0.6c-0.2,0.1-0.5,0.3-0.8,0.4
		C254.8,25.9,254.4,26,254.1,26z M252.4,22.8h2.9c0-0.5-0.1-1-0.3-1.2c-0.2-0.3-0.6-0.4-1-0.4c-0.4,0-0.7,0.1-1,0.4
		C252.6,21.8,252.4,22.2,252.4,22.8z"/>
	<path class="st2" d="M258.8,26c-0.4,0-0.7-0.1-1.1-0.2c-0.3-0.1-0.6-0.3-0.9-0.5l0.5-0.6c0.2,0.2,0.5,0.3,0.7,0.5
		c0.2,0.1,0.5,0.2,0.8,0.2c0.4,0,0.6-0.1,0.8-0.2s0.3-0.4,0.3-0.6c0-0.2-0.1-0.3-0.2-0.5c-0.1-0.1-0.3-0.2-0.5-0.3
		c-0.2-0.1-0.4-0.2-0.6-0.2c-0.2-0.1-0.5-0.2-0.7-0.3s-0.4-0.3-0.6-0.5s-0.2-0.4-0.2-0.7c0-0.4,0.2-0.8,0.5-1.1
		c0.3-0.3,0.8-0.4,1.4-0.4c0.3,0,0.6,0.1,0.9,0.2s0.5,0.3,0.7,0.4l-0.4,0.6c-0.2-0.1-0.4-0.3-0.6-0.3c-0.2-0.1-0.4-0.1-0.6-0.1
		c-0.3,0-0.6,0.1-0.7,0.2c-0.2,0.2-0.2,0.3-0.2,0.5c0,0.2,0.1,0.3,0.2,0.4c0.1,0.1,0.3,0.2,0.4,0.3c0.2,0.1,0.4,0.2,0.6,0.2
		c0.3,0.1,0.5,0.2,0.8,0.3s0.5,0.3,0.6,0.5c0.2,0.2,0.2,0.5,0.2,0.8c0,0.3-0.1,0.5-0.2,0.8s-0.4,0.4-0.7,0.6S259.2,26,258.8,26z"/>
	<path class="st2" d="M262,28.1v-7.6h0.7l0.1,0.6h0c0.2-0.2,0.5-0.4,0.8-0.5s0.6-0.2,0.9-0.2c0.7,0,1.2,0.2,1.6,0.7s0.5,1.2,0.5,2
		c0,0.6-0.1,1.1-0.3,1.6c-0.2,0.4-0.5,0.8-0.8,1c-0.3,0.2-0.7,0.3-1.1,0.3c-0.2,0-0.5-0.1-0.7-0.2c-0.2-0.1-0.5-0.3-0.7-0.5l0,0.9
		v1.8H262z M264.2,25.2c0.4,0,0.8-0.2,1.1-0.6c0.3-0.4,0.4-0.9,0.4-1.6c0-0.6-0.1-1.1-0.3-1.4c-0.2-0.4-0.6-0.5-1.1-0.5
		c-0.2,0-0.5,0.1-0.7,0.2c-0.2,0.1-0.5,0.3-0.7,0.5v2.8c0.2,0.2,0.5,0.4,0.7,0.4C263.8,25.2,264,25.2,264.2,25.2z"/>
	<path class="st2" d="M270.1,26c-0.4,0-0.8-0.1-1.2-0.3c-0.4-0.2-0.7-0.5-0.9-1c-0.2-0.4-0.3-0.9-0.3-1.5c0-0.6,0.1-1.1,0.3-1.5
		c0.2-0.4,0.5-0.7,0.9-1c0.4-0.2,0.8-0.3,1.2-0.3c0.4,0,0.8,0.1,1.2,0.3c0.4,0.2,0.7,0.5,0.9,1c0.2,0.4,0.3,0.9,0.3,1.5
		c0,0.6-0.1,1.1-0.3,1.5c-0.2,0.4-0.5,0.7-0.9,1C271,25.9,270.6,26,270.1,26z M270.1,25.2c0.5,0,0.8-0.2,1.1-0.6
		c0.3-0.4,0.4-0.9,0.4-1.5c0-0.6-0.1-1.1-0.4-1.5c-0.3-0.4-0.7-0.6-1.1-0.6c-0.5,0-0.8,0.2-1.1,0.6c-0.3,0.4-0.4,0.9-0.4,1.5
		c0,0.6,0.1,1.1,0.4,1.5C269.3,25,269.7,25.2,270.1,25.2z"/>
	<path class="st2" d="M274,25.9v-5.3h0.7l0.1,0.8h0c0.3-0.3,0.5-0.5,0.8-0.6c0.3-0.2,0.6-0.3,1-0.3c0.6,0,1,0.2,1.2,0.5
		c0.3,0.4,0.4,0.9,0.4,1.6v3.4h-0.9v-3.3c0-0.5-0.1-0.9-0.2-1.1c-0.2-0.2-0.4-0.3-0.8-0.3c-0.3,0-0.5,0.1-0.7,0.2
		c-0.2,0.1-0.5,0.3-0.7,0.6v3.9H274z"/>
	<path class="st2" d="M281.4,26c-0.4,0-0.7-0.1-1.1-0.2c-0.3-0.1-0.6-0.3-0.9-0.5l0.5-0.6c0.2,0.2,0.5,0.3,0.7,0.5
		c0.2,0.1,0.5,0.2,0.8,0.2c0.4,0,0.6-0.1,0.8-0.2s0.3-0.4,0.3-0.6c0-0.2-0.1-0.3-0.2-0.5c-0.1-0.1-0.3-0.2-0.5-0.3
		c-0.2-0.1-0.4-0.2-0.6-0.2c-0.2-0.1-0.5-0.2-0.7-0.3s-0.4-0.3-0.6-0.5s-0.2-0.4-0.2-0.7c0-0.4,0.2-0.8,0.5-1.1
		c0.3-0.3,0.8-0.4,1.4-0.4c0.3,0,0.6,0.1,0.9,0.2s0.5,0.3,0.7,0.4l-0.4,0.6c-0.2-0.1-0.4-0.3-0.6-0.3c-0.2-0.1-0.4-0.1-0.6-0.1
		c-0.3,0-0.6,0.1-0.7,0.2c-0.2,0.2-0.2,0.3-0.2,0.5c0,0.2,0.1,0.3,0.2,0.4c0.1,0.1,0.3,0.2,0.4,0.3c0.2,0.1,0.4,0.2,0.6,0.2
		c0.3,0.1,0.5,0.2,0.8,0.3s0.5,0.3,0.6,0.5c0.2,0.2,0.2,0.5,0.2,0.8c0,0.3-0.1,0.5-0.2,0.8s-0.4,0.4-0.7,0.6S281.9,26,281.4,26z"/>
	<path class="st2" d="M286.8,26c-0.5,0-0.9-0.1-1.3-0.3s-0.7-0.5-0.9-1c-0.2-0.4-0.3-0.9-0.3-1.5c0-0.6,0.1-1.1,0.3-1.5
		c0.2-0.4,0.5-0.7,0.9-1c0.4-0.2,0.8-0.3,1.2-0.3c0.7,0,1.2,0.2,1.6,0.7s0.6,1.1,0.6,1.8c0,0.1,0,0.2,0,0.3c0,0.1,0,0.2,0,0.2h-3.6
		c0,0.6,0.2,1,0.5,1.4c0.3,0.3,0.7,0.5,1.2,0.5c0.3,0,0.5,0,0.7-0.1c0.2-0.1,0.4-0.2,0.6-0.3l0.3,0.6c-0.2,0.1-0.5,0.3-0.8,0.4
		C287.5,25.9,287.2,26,286.8,26z M285.1,22.8h2.9c0-0.5-0.1-1-0.3-1.2c-0.2-0.3-0.6-0.4-1-0.4c-0.4,0-0.7,0.1-1,0.4
		C285.4,21.8,285.2,22.2,285.1,22.8z"/>
	<path class="st2" d="M294.4,26c-0.5,0-0.9-0.1-1.3-0.3c-0.4-0.2-0.7-0.5-0.9-1s-0.3-0.9-0.3-1.5c0-0.6,0.1-1.1,0.4-1.5
		s0.6-0.7,0.9-1c0.4-0.2,0.8-0.3,1.3-0.3c0.4,0,0.7,0.1,0.9,0.2s0.5,0.3,0.7,0.4l-0.5,0.6c-0.2-0.1-0.3-0.3-0.5-0.3
		c-0.2-0.1-0.4-0.1-0.6-0.1c-0.3,0-0.6,0.1-0.9,0.3c-0.3,0.2-0.5,0.4-0.6,0.7s-0.2,0.7-0.2,1.1c0,0.6,0.2,1.1,0.5,1.5
		c0.3,0.4,0.7,0.6,1.2,0.6c0.2,0,0.5-0.1,0.7-0.2c0.2-0.1,0.4-0.2,0.6-0.4l0.4,0.6c-0.2,0.2-0.5,0.4-0.8,0.5
		C295.1,25.9,294.7,26,294.4,26z"/>
	<path class="st2" d="M299.2,26c-0.4,0-0.8-0.1-1.2-0.3c-0.4-0.2-0.7-0.5-0.9-1c-0.2-0.4-0.3-0.9-0.3-1.5c0-0.6,0.1-1.1,0.3-1.5
		c0.2-0.4,0.5-0.7,0.9-1c0.4-0.2,0.8-0.3,1.2-0.3c0.4,0,0.8,0.1,1.2,0.3c0.4,0.2,0.7,0.5,0.9,1c0.2,0.4,0.3,0.9,0.3,1.5
		c0,0.6-0.1,1.1-0.3,1.5c-0.2,0.4-0.5,0.7-0.9,1C300,25.9,299.6,26,299.2,26z M299.2,25.2c0.5,0,0.8-0.2,1.1-0.6
		c0.3-0.4,0.4-0.9,0.4-1.5c0-0.6-0.1-1.1-0.4-1.5c-0.3-0.4-0.7-0.6-1.1-0.6c-0.5,0-0.8,0.2-1.1,0.6c-0.3,0.4-0.4,0.9-0.4,1.5
		c0,0.6,0.1,1.1,0.4,1.5C298.3,25,298.7,25.2,299.2,25.2z"/>
	<path class="st2" d="M305.1,26c-0.4,0-0.8-0.1-1.2-0.3c-0.4-0.2-0.7-0.5-0.9-1c-0.2-0.4-0.3-0.9-0.3-1.5c0-0.6,0.1-1.1,0.3-1.5
		c0.2-0.4,0.5-0.7,0.9-1c0.4-0.2,0.8-0.3,1.2-0.3c0.4,0,0.8,0.1,1.2,0.3c0.4,0.2,0.7,0.5,0.9,1c0.2,0.4,0.3,0.9,0.3,1.5
		c0,0.6-0.1,1.1-0.3,1.5c-0.2,0.4-0.5,0.7-0.9,1C306,25.9,305.6,26,305.1,26z M305.1,25.2c0.5,0,0.8-0.2,1.1-0.6
		c0.3-0.4,0.4-0.9,0.4-1.5c0-0.6-0.1-1.1-0.4-1.5c-0.3-0.4-0.7-0.6-1.1-0.6c-0.5,0-0.8,0.2-1.1,0.6c-0.3,0.4-0.4,0.9-0.4,1.5
		c0,0.6,0.1,1.1,0.4,1.5C304.3,25,304.7,25.2,305.1,25.2z"/>
	<path class="st2" d="M309,25.9v-5.3h0.7l0.1,1h0c0.2-0.3,0.4-0.6,0.7-0.8c0.3-0.2,0.5-0.3,0.8-0.3c0.2,0,0.4,0,0.6,0.1l-0.2,0.8
		c-0.1,0-0.2-0.1-0.2-0.1s-0.2,0-0.3,0c-0.2,0-0.5,0.1-0.7,0.3c-0.2,0.2-0.5,0.5-0.6,1v3.4H309z"/>
	<path class="st2" d="M314.6,26c-0.7,0-1.2-0.2-1.6-0.7c-0.4-0.5-0.6-1.2-0.6-2.1c0-0.6,0.1-1.1,0.3-1.5c0.2-0.4,0.5-0.7,0.9-1
		s0.7-0.3,1.1-0.3c0.3,0,0.6,0.1,0.8,0.2c0.2,0.1,0.5,0.3,0.7,0.5l0-0.9V18h0.9v7.8h-0.7l-0.1-0.6h0c-0.2,0.2-0.4,0.4-0.7,0.5
		C315.2,25.9,314.9,26,314.6,26z M314.8,25.2c0.5,0,0.9-0.2,1.4-0.7v-2.8c-0.2-0.2-0.4-0.3-0.7-0.4c-0.2-0.1-0.4-0.1-0.6-0.1
		c-0.3,0-0.5,0.1-0.8,0.3c-0.2,0.2-0.4,0.4-0.6,0.7c-0.1,0.3-0.2,0.7-0.2,1.1c0,0.6,0.1,1.1,0.4,1.5C313.9,25,314.3,25.2,314.8,25.2
		z"/>
	<path class="st2" d="M319.3,19.4c-0.2,0-0.3-0.1-0.4-0.2s-0.2-0.3-0.2-0.4c0-0.2,0.1-0.3,0.2-0.4c0.1-0.1,0.3-0.2,0.4-0.2
		s0.3,0.1,0.4,0.2c0.1,0.1,0.2,0.3,0.2,0.4c0,0.2-0.1,0.3-0.2,0.4C319.6,19.4,319.5,19.4,319.3,19.4z M318.8,25.9v-5.3h0.9v5.3
		H318.8z"/>
	<path class="st2" d="M321.5,25.9v-5.3h0.7l0.1,0.8h0c0.3-0.3,0.5-0.5,0.8-0.6c0.3-0.2,0.6-0.3,1-0.3c0.6,0,1,0.2,1.2,0.5
		c0.3,0.4,0.4,0.9,0.4,1.6v3.4h-0.9v-3.3c0-0.5-0.1-0.9-0.2-1.1c-0.2-0.2-0.4-0.3-0.8-0.3c-0.3,0-0.5,0.1-0.7,0.2
		c-0.2,0.1-0.5,0.3-0.7,0.6v3.9H321.5z"/>
	<path class="st2" d="M328.8,26c-0.4,0-0.8-0.1-1.1-0.4s-0.4-0.6-0.4-1.1c0-0.6,0.3-1,0.8-1.3s1.4-0.5,2.5-0.7c0-0.2,0-0.4-0.1-0.6
		s-0.2-0.4-0.3-0.5c-0.2-0.1-0.4-0.2-0.7-0.2c-0.3,0-0.6,0.1-0.9,0.2s-0.5,0.2-0.7,0.4l-0.4-0.6c0.2-0.2,0.6-0.3,0.9-0.5
		c0.4-0.1,0.8-0.2,1.2-0.2c0.7,0,1.1,0.2,1.4,0.6c0.3,0.4,0.4,0.9,0.4,1.6v3.3h-0.7l-0.1-0.6h0c-0.2,0.2-0.5,0.4-0.8,0.5
		C329.4,25.9,329.1,26,328.8,26z M329.1,25.3c0.3,0,0.5-0.1,0.7-0.2c0.2-0.1,0.5-0.3,0.7-0.5v-1.5c-0.9,0.1-1.5,0.3-1.9,0.5
		c-0.4,0.2-0.5,0.5-0.5,0.8c0,0.3,0.1,0.5,0.3,0.7C328.6,25.2,328.8,25.3,329.1,25.3z"/>
	<path class="st2" d="M334.6,26c-0.6,0-1-0.2-1.2-0.5c-0.2-0.3-0.3-0.8-0.3-1.3v-3h-0.8v-0.7l0.8-0.1l0.1-1.5h0.8v1.5h1.4v0.7H334v3
		c0,0.3,0.1,0.6,0.2,0.8s0.3,0.3,0.6,0.3c0.1,0,0.2,0,0.3,0c0.1,0,0.2-0.1,0.3-0.1l0.2,0.7c-0.1,0.1-0.3,0.1-0.5,0.1
		C335,26,334.8,26,334.6,26z"/>
	<path class="st2" d="M338.7,26c-0.5,0-0.9-0.1-1.3-0.3s-0.7-0.5-0.9-1c-0.2-0.4-0.3-0.9-0.3-1.5c0-0.6,0.1-1.1,0.3-1.5
		c0.2-0.4,0.5-0.7,0.9-1c0.4-0.2,0.8-0.3,1.2-0.3c0.7,0,1.2,0.2,1.6,0.7s0.6,1.1,0.6,1.8c0,0.1,0,0.2,0,0.3c0,0.1,0,0.2,0,0.2H337
		c0,0.6,0.2,1,0.5,1.4c0.3,0.3,0.7,0.5,1.2,0.5c0.3,0,0.5,0,0.7-0.1c0.2-0.1,0.4-0.2,0.6-0.3l0.3,0.6c-0.2,0.1-0.5,0.3-0.8,0.4
		C339.4,25.9,339,26,338.7,26z M337,22.8h2.9c0-0.5-0.1-1-0.3-1.2c-0.2-0.3-0.6-0.4-1-0.4c-0.4,0-0.7,0.1-1,0.4
		C337.2,21.8,337.1,22.2,337,22.8z"/>
	<path class="st2" d="M343.8,26c-0.7,0-1.2-0.2-1.6-0.7c-0.4-0.5-0.6-1.2-0.6-2.1c0-0.6,0.1-1.1,0.3-1.5c0.2-0.4,0.5-0.7,0.9-1
		c0.4-0.2,0.7-0.3,1.1-0.3c0.3,0,0.6,0.1,0.8,0.2c0.2,0.1,0.5,0.3,0.7,0.5l0-0.9V18h0.9v7.8h-0.7l-0.1-0.6h0
		c-0.2,0.2-0.4,0.4-0.7,0.5S344.1,26,343.8,26z M344,25.2c0.5,0,0.9-0.2,1.4-0.7v-2.8c-0.2-0.2-0.4-0.3-0.7-0.4
		c-0.2-0.1-0.4-0.1-0.6-0.1c-0.3,0-0.5,0.1-0.8,0.3c-0.2,0.2-0.4,0.4-0.6,0.7c-0.1,0.3-0.2,0.7-0.2,1.1c0,0.6,0.1,1.1,0.4,1.5
		C343.2,25,343.5,25.2,344,25.2z"/>
</g>
<g class="st1">
	<path class="st2" d="M185.9,41c-0.2,0-0.5-0.1-0.8-0.2s-0.5-0.3-0.8-0.5h0l-0.1,0.5h-0.7V33h0.9v2.1l0,1c0.2-0.2,0.5-0.4,0.8-0.5
		c0.3-0.1,0.6-0.2,0.9-0.2c0.7,0,1.2,0.2,1.6,0.7s0.5,1.2,0.5,2c0,0.6-0.1,1.1-0.3,1.6c-0.2,0.4-0.5,0.8-0.8,1S186.3,41,185.9,41z
		 M185.7,40.2c0.4,0,0.8-0.2,1.1-0.6s0.4-0.9,0.4-1.6c0-0.6-0.1-1.1-0.3-1.4c-0.2-0.4-0.6-0.5-1.1-0.5c-0.2,0-0.5,0.1-0.7,0.2
		c-0.2,0.1-0.5,0.3-0.7,0.5v2.8c0.2,0.2,0.5,0.4,0.7,0.4C185.4,40.2,185.6,40.2,185.7,40.2z"/>
	<path class="st2" d="M189.7,43.2c-0.1,0-0.2,0-0.3,0c-0.1,0-0.2,0-0.3-0.1l0.2-0.7c0.1,0,0.1,0,0.2,0s0.1,0,0.2,0
		c0.3,0,0.6-0.1,0.7-0.3c0.2-0.2,0.4-0.5,0.5-0.8l0.1-0.4l-2.1-5.4h0.9l1.1,3c0.1,0.2,0.2,0.5,0.3,0.7c0.1,0.3,0.2,0.5,0.3,0.8h0
		c0.1-0.2,0.2-0.5,0.2-0.8c0.1-0.3,0.1-0.5,0.2-0.7l1-3h0.9l-2,5.8c-0.1,0.4-0.3,0.7-0.4,0.9c-0.2,0.3-0.4,0.5-0.6,0.7
		S190,43.2,189.7,43.2z"/>
	<path class="st2" d="M198.6,41c-0.6,0-1-0.2-1.2-0.5c-0.2-0.3-0.3-0.8-0.3-1.3v-3h-0.8v-0.7l0.8-0.1l0.1-1.5h0.8v1.5h1.4v0.7H198v3
		c0,0.3,0.1,0.6,0.2,0.8s0.3,0.3,0.6,0.3c0.1,0,0.2,0,0.3,0c0.1,0,0.2-0.1,0.3-0.1l0.2,0.7c-0.1,0.1-0.3,0.1-0.5,0.1
		C198.9,41,198.8,41,198.6,41z"/>
	<path class="st2" d="M200.6,40.9V33h0.9v2.1l0,1.1c0.3-0.2,0.5-0.4,0.8-0.6c0.3-0.2,0.6-0.3,1-0.3c0.6,0,1,0.2,1.2,0.5
		c0.3,0.4,0.4,0.9,0.4,1.6v3.4H204v-3.3c0-0.5-0.1-0.9-0.2-1.1c-0.2-0.2-0.4-0.3-0.8-0.3c-0.3,0-0.5,0.1-0.7,0.2
		c-0.2,0.1-0.5,0.3-0.7,0.6v3.9H200.6z"/>
	<path class="st2" d="M208.8,41c-0.5,0-0.9-0.1-1.3-0.3s-0.7-0.5-0.9-1c-0.2-0.4-0.3-0.9-0.3-1.5c0-0.6,0.1-1.1,0.3-1.5
		c0.2-0.4,0.5-0.7,0.9-1c0.4-0.2,0.8-0.3,1.2-0.3c0.7,0,1.2,0.2,1.6,0.7s0.6,1.1,0.6,1.8c0,0.1,0,0.2,0,0.3c0,0.1,0,0.2,0,0.2h-3.6
		c0,0.6,0.2,1,0.5,1.4c0.3,0.3,0.7,0.5,1.2,0.5c0.3,0,0.5,0,0.7-0.1c0.2-0.1,0.4-0.2,0.6-0.3l0.3,0.6c-0.2,0.1-0.5,0.3-0.8,0.4
		C209.5,40.9,209.1,41,208.8,41z M207.1,37.8h2.9c0-0.5-0.1-1-0.3-1.2c-0.2-0.3-0.6-0.4-1-0.4c-0.4,0-0.7,0.1-1,0.4
		C207.3,36.8,207.1,37.2,207.1,37.8z"/>
	<path class="st2" d="M216.9,41c-0.5,0-0.9-0.1-1.3-0.3c-0.4-0.2-0.7-0.5-0.9-1c-0.2-0.5-0.3-1.1-0.3-1.8v-4.2h0.9v4.3
		c0,0.6,0.1,1,0.2,1.4c0.1,0.3,0.4,0.6,0.6,0.7s0.5,0.2,0.9,0.2c0.3,0,0.6-0.1,0.9-0.2s0.5-0.4,0.6-0.7c0.2-0.3,0.2-0.8,0.2-1.4
		v-4.3h0.9v4.2c0,0.8-0.1,1.4-0.3,1.8c-0.2,0.5-0.5,0.8-0.9,1S217.4,41,216.9,41z"/>
	<path class="st2" d="M221.4,40.9v-5.3h0.7l0.1,0.8h0c0.3-0.3,0.5-0.5,0.8-0.6c0.3-0.2,0.6-0.3,1-0.3c0.6,0,1,0.2,1.2,0.5
		c0.3,0.4,0.4,0.9,0.4,1.6v3.4h-0.9v-3.3c0-0.5-0.1-0.9-0.2-1.1c-0.2-0.2-0.4-0.3-0.8-0.3c-0.3,0-0.5,0.1-0.7,0.2
		c-0.2,0.1-0.5,0.3-0.7,0.6v3.9H221.4z"/>
	<path class="st2" d="M227.8,34.4c-0.2,0-0.3-0.1-0.4-0.2s-0.2-0.3-0.2-0.4c0-0.2,0.1-0.3,0.2-0.4c0.1-0.1,0.3-0.2,0.4-0.2
		s0.3,0.1,0.4,0.2c0.1,0.1,0.2,0.3,0.2,0.4c0,0.2-0.1,0.3-0.2,0.4C228.2,34.4,228,34.4,227.8,34.4z M227.4,40.9v-5.3h0.9v5.3H227.4z
		"/>
	<path class="st2" d="M231.8,41c-0.6,0-1-0.2-1.2-0.5s-0.3-0.8-0.3-1.3v-3h-0.8v-0.7l0.8-0.1l0.1-1.5h0.8v1.5h1.4v0.7h-1.4v3
		c0,0.3,0.1,0.6,0.2,0.8s0.3,0.3,0.6,0.3c0.1,0,0.2,0,0.3,0c0.1,0,0.2-0.1,0.3-0.1l0.2,0.7c-0.1,0.1-0.3,0.1-0.5,0.1
		S231.9,41,231.8,41z"/>
	<path class="st2" d="M235.8,41c-0.5,0-0.9-0.1-1.3-0.3s-0.7-0.5-0.9-1s-0.3-0.9-0.3-1.5c0-0.6,0.1-1.1,0.3-1.5
		c0.2-0.4,0.5-0.7,0.9-1c0.4-0.2,0.8-0.3,1.2-0.3c0.7,0,1.2,0.2,1.6,0.7s0.6,1.1,0.6,1.8c0,0.1,0,0.2,0,0.3s0,0.2,0,0.2h-3.6
		c0,0.6,0.2,1,0.5,1.4c0.3,0.3,0.7,0.5,1.2,0.5c0.3,0,0.5,0,0.7-0.1c0.2-0.1,0.4-0.2,0.6-0.3l0.3,0.6c-0.2,0.1-0.5,0.3-0.8,0.4
		C236.5,40.9,236.2,41,235.8,41z M234.1,37.8h2.9c0-0.5-0.1-1-0.3-1.2c-0.2-0.3-0.6-0.4-1-0.4c-0.4,0-0.7,0.1-1,0.4
		C234.4,36.8,234.2,37.2,234.1,37.8z"/>
	<path class="st2" d="M240.9,41c-0.7,0-1.2-0.2-1.6-0.7c-0.4-0.5-0.6-1.2-0.6-2.1c0-0.6,0.1-1.1,0.3-1.5c0.2-0.4,0.5-0.7,0.9-1
		s0.7-0.3,1.1-0.3c0.3,0,0.6,0.1,0.8,0.2c0.2,0.1,0.5,0.3,0.7,0.5l0-0.9V33h0.9v7.8h-0.7l-0.1-0.6h0c-0.2,0.2-0.4,0.4-0.7,0.5
		C241.5,40.9,241.2,41,240.9,41z M241.1,40.2c0.5,0,0.9-0.2,1.4-0.7v-2.8c-0.2-0.2-0.4-0.3-0.7-0.4c-0.2-0.1-0.4-0.1-0.6-0.1
		c-0.3,0-0.5,0.1-0.8,0.3c-0.2,0.2-0.4,0.4-0.6,0.7c-0.1,0.3-0.2,0.7-0.2,1.1c0,0.6,0.1,1.1,0.4,1.5C240.3,40,240.6,40.2,241.1,40.2
		z"/>
	<path class="st2" d="M247.5,40.9v-7.2h0.9l2.6,4.5l0.8,1.5h0c0-0.4,0-0.7-0.1-1.1c0-0.4,0-0.8,0-1.2v-3.7h0.9v7.2h-0.9l-2.6-4.5
		l-0.8-1.5h0c0,0.4,0.1,0.7,0.1,1.1c0,0.4,0,0.8,0,1.1v3.8H247.5z"/>
	<path class="st2" d="M255.7,41c-0.4,0-0.8-0.1-1.1-0.4s-0.4-0.6-0.4-1.1c0-0.6,0.3-1,0.8-1.3s1.4-0.5,2.5-0.7c0-0.2,0-0.4-0.1-0.6
		c-0.1-0.2-0.2-0.4-0.3-0.5c-0.2-0.1-0.4-0.2-0.7-0.2c-0.3,0-0.6,0.1-0.9,0.2s-0.5,0.2-0.7,0.4l-0.4-0.6c0.2-0.2,0.6-0.3,0.9-0.5
		c0.4-0.1,0.8-0.2,1.2-0.2c0.7,0,1.1,0.2,1.4,0.6c0.3,0.4,0.4,0.9,0.4,1.6v3.3h-0.7l-0.1-0.6h0c-0.2,0.2-0.5,0.4-0.8,0.5
		C256.4,40.9,256.1,41,255.7,41z M256,40.3c0.3,0,0.5-0.1,0.7-0.2c0.2-0.1,0.5-0.3,0.7-0.5v-1.5c-0.9,0.1-1.5,0.3-1.9,0.5
		s-0.5,0.5-0.5,0.8c0,0.3,0.1,0.5,0.3,0.7S255.7,40.3,256,40.3z"/>
	<path class="st2" d="M261.6,41c-0.6,0-1-0.2-1.2-0.5c-0.2-0.3-0.3-0.8-0.3-1.3v-3h-0.8v-0.7l0.8-0.1l0.1-1.5h0.8v1.5h1.4v0.7H261v3
		c0,0.3,0.1,0.6,0.2,0.8s0.3,0.3,0.6,0.3c0.1,0,0.2,0,0.3,0c0.1,0,0.2-0.1,0.3-0.1l0.2,0.7c-0.1,0.1-0.3,0.1-0.5,0.1
		C261.9,41,261.8,41,261.6,41z"/>
	<path class="st2" d="M264.1,34.4c-0.2,0-0.3-0.1-0.4-0.2s-0.2-0.3-0.2-0.4c0-0.2,0.1-0.3,0.2-0.4c0.1-0.1,0.3-0.2,0.4-0.2
		s0.3,0.1,0.4,0.2c0.1,0.1,0.2,0.3,0.2,0.4c0,0.2-0.1,0.3-0.2,0.4C264.4,34.4,264.3,34.4,264.1,34.4z M263.6,40.9v-5.3h0.9v5.3
		H263.6z"/>
	<path class="st2" d="M268.4,41c-0.4,0-0.8-0.1-1.2-0.3c-0.4-0.2-0.7-0.5-0.9-1c-0.2-0.4-0.3-0.9-0.3-1.5c0-0.6,0.1-1.1,0.3-1.5
		c0.2-0.4,0.5-0.7,0.9-1c0.4-0.2,0.8-0.3,1.2-0.3c0.4,0,0.8,0.1,1.2,0.3c0.4,0.2,0.7,0.5,0.9,1c0.2,0.4,0.3,0.9,0.3,1.5
		c0,0.6-0.1,1.1-0.3,1.5c-0.2,0.4-0.5,0.7-0.9,1C269.3,40.9,268.8,41,268.4,41z M268.4,40.2c0.5,0,0.8-0.2,1.1-0.6
		c0.3-0.4,0.4-0.9,0.4-1.5c0-0.6-0.1-1.1-0.4-1.5c-0.3-0.4-0.7-0.6-1.1-0.6c-0.5,0-0.8,0.2-1.1,0.6c-0.3,0.4-0.4,0.9-0.4,1.5
		c0,0.6,0.1,1.1,0.4,1.5C267.6,40,268,40.2,268.4,40.2z"/>
	<path class="st2" d="M272.3,40.9v-5.3h0.7l0.1,0.8h0c0.3-0.3,0.5-0.5,0.8-0.6c0.3-0.2,0.6-0.3,1-0.3c0.6,0,1,0.2,1.2,0.5
		c0.3,0.4,0.4,0.9,0.4,1.6v3.4h-0.9v-3.3c0-0.5-0.1-0.9-0.2-1.1c-0.2-0.2-0.4-0.3-0.8-0.3c-0.3,0-0.5,0.1-0.7,0.2
		c-0.2,0.1-0.5,0.3-0.7,0.6v3.9H272.3z"/>
	<path class="st2" d="M279.7,41c-0.4,0-0.7-0.1-1.1-0.2c-0.3-0.1-0.6-0.3-0.9-0.5l0.5-0.6c0.2,0.2,0.5,0.3,0.7,0.5
		c0.2,0.1,0.5,0.2,0.8,0.2c0.4,0,0.6-0.1,0.8-0.2s0.3-0.4,0.3-0.6c0-0.2-0.1-0.3-0.2-0.5c-0.1-0.1-0.3-0.2-0.5-0.3
		c-0.2-0.1-0.4-0.2-0.6-0.2c-0.2-0.1-0.5-0.2-0.7-0.3c-0.2-0.1-0.4-0.3-0.6-0.5c-0.2-0.2-0.2-0.4-0.2-0.7c0-0.4,0.2-0.8,0.5-1.1
		c0.3-0.3,0.8-0.4,1.4-0.4c0.3,0,0.6,0.1,0.9,0.2s0.5,0.3,0.7,0.4l-0.4,0.6c-0.2-0.1-0.4-0.3-0.6-0.3c-0.2-0.1-0.4-0.1-0.6-0.1
		c-0.3,0-0.6,0.1-0.7,0.2c-0.2,0.2-0.2,0.3-0.2,0.5c0,0.2,0.1,0.3,0.2,0.4c0.1,0.1,0.3,0.2,0.4,0.3s0.4,0.2,0.6,0.2
		c0.3,0.1,0.5,0.2,0.8,0.3c0.2,0.1,0.5,0.3,0.6,0.5c0.2,0.2,0.2,0.5,0.2,0.8c0,0.3-0.1,0.5-0.2,0.8c-0.2,0.2-0.4,0.4-0.7,0.6
		C280.5,40.9,280.1,41,279.7,41z"/>
</g>
</svg>
