<?xml version="1.0" encoding="utf-8"?>
<!-- Generator: Adobe Illustrator 27.0.0, SVG Export Plug-In . SVG Version: 6.00 Build 0)  -->
<svg version="1.1" id="Layer_1" xmlns="http://www.w3.org/2000/svg" xmlns:xlink="http://www.w3.org/1999/xlink" x="0px" y="0px"
	 viewBox="0 0 464.6 68.2" style="enable-background:new 0 0 464.6 68.2;" xml:space="preserve">
<style type="text/css">
	.st0{fill:#4D4D4D;}
	.st1{fill:#FED83D;}
</style>
<g>
	<path class="st0" d="M51.9,35.5h-7.1V20.9H31.1v14.7H24V1.3h7.1v13.9h13.8V1.3h7.1V35.5z"/>
	<path class="st0" d="M72.8,32.9c-1.7,2-4,3.1-7,3.1c-2.7,0-4.8-0.8-6.2-2.4c-1.4-1.6-2.2-3.9-2.2-6.9V10.1h6.8v16.5
		c0,2.7,1.2,4,3.6,4c2.3,0,3.9-0.8,4.7-2.4v-18h6.8v25.4H73L72.8,32.9z"/>
	<path class="st0" d="M90.9,10.1l0.2,2.8c1.8-2.2,4.2-3.3,7.3-3.3c3.3,0,5.5,1.3,6.7,3.9c1.8-2.6,4.3-3.9,7.6-3.9
		c2.8,0,4.8,0.8,6.2,2.4s2,4,2,7.3v16.2h-6.8V19.3c0-1.4-0.3-2.5-0.8-3.2c-0.6-0.7-1.6-1-3-1c-2,0-3.4,1-4.2,2.9l0,17.5h-6.8V19.3
		c0-1.5-0.3-2.5-0.9-3.2c-0.6-0.7-1.6-1-3-1c-1.9,0-3.3,0.8-4.2,2.4v18h-6.8V10.1H90.9z"/>
	<path class="st0" d="M141,35.5c-0.3-0.6-0.5-1.4-0.7-2.3c-1.6,1.8-3.8,2.8-6.4,2.8c-2.5,0-4.6-0.7-6.2-2.2s-2.5-3.3-2.5-5.5
		c0-2.7,1-4.8,3-6.2c2-1.4,4.9-2.2,8.7-2.2h3.1v-1.5c0-1.2-0.3-2.1-0.9-2.8c-0.6-0.7-1.6-1.1-2.9-1.1c-1.1,0-2,0.3-2.7,0.8
		c-0.7,0.5-1,1.3-1,2.3h-6.8c0-1.5,0.5-2.8,1.4-4.1c0.9-1.3,2.2-2.2,3.9-3c1.7-0.7,3.5-1.1,5.6-1.1c3.1,0,5.6,0.8,7.5,2.4
		s2.8,3.8,2.8,6.6v11c0,2.4,0.4,4.2,1,5.5v0.4H141z M135.3,30.8c1,0,1.9-0.2,2.8-0.7c0.8-0.4,1.5-1,1.9-1.8V24h-2.5
		c-3.4,0-5.2,1.2-5.4,3.5l0,0.4c0,0.8,0.3,1.5,0.9,2.1C133.5,30.5,134.3,30.8,135.3,30.8z"/>
	<path class="st0" d="M158.3,10.1l0.2,2.9c1.8-2.3,4.3-3.4,7.3-3.4c2.7,0,4.7,0.8,6,2.4s2,4,2,7.1v16.4h-6.8V19.3
		c0-1.4-0.3-2.5-0.9-3.1c-0.6-0.7-1.7-1-3.1-1c-1.9,0-3.3,0.8-4.3,2.4v17.9h-6.8V10.1H158.3z"/>
	<path class="st0" d="M179,3.5c0-1,0.3-1.9,1-2.5c0.7-0.7,1.6-1,2.8-1c1.2,0,2.1,0.3,2.8,1s1,1.5,1,2.5c0,1-0.3,1.9-1,2.5
		c-0.7,0.7-1.6,1-2.8,1s-2.1-0.3-2.8-1S179,4.5,179,3.5z M186.2,35.5h-6.8V10.1h6.8V35.5z"/>
	<path class="st0" d="M199.9,3.8v6.3h4.4v5h-4.4v12.7c0,0.9,0.2,1.6,0.5,2c0.4,0.4,1.1,0.6,2.1,0.6c0.8,0,1.4-0.1,2-0.2v5.1
		c-1.3,0.4-2.7,0.6-4.1,0.6c-4.8,0-7.2-2.4-7.3-7.2V15.1h-3.7v-5h3.7V3.8H199.9z"/>
	<path class="st0" d="M222.8,35.5c-0.3-0.6-0.5-1.4-0.7-2.3c-1.6,1.8-3.8,2.8-6.4,2.8c-2.5,0-4.6-0.7-6.2-2.2
		c-1.6-1.4-2.5-3.3-2.5-5.5c0-2.7,1-4.8,3-6.2c2-1.4,4.9-2.2,8.7-2.2h3.1v-1.5c0-1.2-0.3-2.1-0.9-2.8c-0.6-0.7-1.6-1.1-2.9-1.1
		c-1.1,0-2,0.3-2.7,0.8c-0.7,0.5-1,1.3-1,2.3h-6.8c0-1.5,0.5-2.8,1.4-4.1s2.2-2.2,3.9-3c1.7-0.7,3.5-1.1,5.6-1.1
		c3.1,0,5.6,0.8,7.5,2.4s2.8,3.8,2.8,6.6v11c0,2.4,0.4,4.2,1,5.5v0.4H222.8z M217.2,30.8c1,0,1.9-0.2,2.8-0.7c0.8-0.4,1.5-1,1.9-1.8
		V24h-2.5c-3.4,0-5.2,1.2-5.4,3.5l0,0.4c0,0.8,0.3,1.5,0.9,2.1C215.3,30.5,216.1,30.8,217.2,30.8z"/>
	<path class="st0" d="M248.2,16.5c-0.9-0.1-1.7-0.2-2.4-0.2c-2.6,0-4.3,0.9-5.1,2.6v16.6h-6.8V10.1h6.4l0.2,3
		c1.4-2.3,3.3-3.5,5.7-3.5c0.8,0,1.5,0.1,2.1,0.3L248.2,16.5z"/>
	<path class="st0" d="M251.4,3.5c0-1,0.3-1.9,1-2.5c0.7-0.7,1.6-1,2.8-1c1.2,0,2.1,0.3,2.8,1c0.7,0.7,1,1.5,1,2.5c0,1-0.3,1.9-1,2.5
		s-1.6,1-2.8,1c-1.1,0-2.1-0.3-2.8-1S251.4,4.5,251.4,3.5z M258.6,35.5h-6.8V10.1h6.8V35.5z"/>
	<path class="st0" d="M278.9,35.5c-0.3-0.6-0.5-1.4-0.7-2.3c-1.6,1.8-3.8,2.8-6.4,2.8c-2.5,0-4.6-0.7-6.2-2.2s-2.5-3.3-2.5-5.5
		c0-2.7,1-4.8,3-6.2c2-1.4,4.9-2.2,8.7-2.2h3.1v-1.5c0-1.2-0.3-2.1-0.9-2.8c-0.6-0.7-1.6-1.1-2.9-1.1c-1.1,0-2,0.3-2.7,0.8
		c-0.7,0.5-1,1.3-1,2.3h-6.8c0-1.5,0.5-2.8,1.4-4.1s2.2-2.2,3.9-3c1.7-0.7,3.5-1.1,5.6-1.1c3.1,0,5.6,0.8,7.5,2.4
		c1.8,1.6,2.8,3.8,2.8,6.6v11c0,2.4,0.4,4.2,1,5.5v0.4H278.9z M273.3,30.8c1,0,1.9-0.2,2.8-0.7c0.8-0.4,1.5-1,1.9-1.8V24h-2.5
		c-3.4,0-5.2,1.2-5.4,3.5l0,0.4c0,0.8,0.3,1.5,0.9,2.1C271.5,30.5,272.3,30.8,273.3,30.8z"/>
	<path class="st0" d="M296.3,10.1l0.2,2.9c1.8-2.3,4.3-3.4,7.3-3.4c2.7,0,4.7,0.8,6,2.4c1.3,1.6,2,4,2,7.1v16.4H305V19.3
		c0-1.4-0.3-2.5-0.9-3.1c-0.6-0.7-1.7-1-3.1-1c-1.9,0-3.3,0.8-4.3,2.4v17.9h-6.8V10.1H296.3z"/>
	<path class="st0" d="M348.8,28.5h-12.4l-2.4,7.1h-7.5l12.7-34.2h6.5l12.8,34.2h-7.5L348.8,28.5z M338.3,22.8h8.6l-4.3-12.8
		L338.3,22.8z"/>
	<path class="st0" d="M372,30.5c1.3,0,2.3-0.3,3.1-1c0.8-0.7,1.2-1.6,1.2-2.8h6.4c0,1.7-0.5,3.3-1.4,4.7c-0.9,1.4-2.2,2.5-3.8,3.3
		c-1.6,0.8-3.4,1.2-5.3,1.2c-3.6,0-6.5-1.2-8.6-3.5s-3.2-5.5-3.2-9.6v-0.4c0-3.9,1-7,3.1-9.4c2.1-2.3,4.9-3.5,8.6-3.5
		c3.2,0,5.7,0.9,7.7,2.7s2.9,4.2,2.9,7.2h-6.4c0-1.3-0.4-2.4-1.2-3.2c-0.8-0.8-1.8-1.2-3.1-1.2c-1.6,0-2.8,0.6-3.6,1.7
		c-0.8,1.2-1.2,3-1.2,5.6v0.7c0,2.6,0.4,4.5,1.2,5.7C369.1,29.9,370.3,30.5,372,30.5z"/>
	<path class="st0" d="M394.6,3.8v6.3h4.4v5h-4.4v12.7c0,0.9,0.2,1.6,0.5,2c0.4,0.4,1.1,0.6,2.1,0.6c0.8,0,1.4-0.1,2-0.2v5.1
		c-1.3,0.4-2.7,0.6-4.1,0.6c-4.8,0-7.2-2.4-7.3-7.2V15.1h-3.7v-5h3.7V3.8H394.6z"/>
	<path class="st0" d="M402.7,3.5c0-1,0.3-1.9,1-2.5c0.7-0.7,1.6-1,2.8-1c1.2,0,2.1,0.3,2.8,1c0.7,0.7,1,1.5,1,2.5c0,1-0.3,1.9-1,2.5
		c-0.7,0.7-1.6,1-2.8,1s-2.1-0.3-2.8-1C403.1,5.4,402.7,4.5,402.7,3.5z M409.9,35.5h-6.8V10.1h6.8V35.5z"/>
	<path class="st0" d="M414.5,22.6c0-2.5,0.5-4.8,1.5-6.7s2.4-3.5,4.2-4.6s3.9-1.6,6.4-1.6c3.4,0,6.2,1.1,8.4,3.2s3.4,5,3.6,8.6
		l0,1.7c0,3.9-1.1,7-3.3,9.4c-2.2,2.4-5.1,3.5-8.8,3.5c-3.7,0-6.6-1.2-8.8-3.5c-2.2-2.4-3.3-5.5-3.3-9.6V22.6z M421.3,23.1
		c0,2.4,0.5,4.3,1.4,5.5s2.2,1.9,3.9,1.9c1.6,0,2.9-0.6,3.9-1.9c0.9-1.3,1.4-3.3,1.4-6.1c0-2.4-0.5-4.2-1.4-5.5
		c-0.9-1.3-2.2-2-3.9-2c-1.7,0-2.9,0.6-3.9,1.9C421.7,18.3,421.3,20.3,421.3,23.1z"/>
	<path class="st0" d="M449,10.1l0.2,2.9c1.8-2.3,4.3-3.4,7.3-3.4c2.7,0,4.7,0.8,6,2.4c1.3,1.6,2,4,2,7.1v16.4h-6.8V19.3
		c0-1.4-0.3-2.5-0.9-3.1c-0.6-0.7-1.7-1-3.1-1c-1.9,0-3.3,0.8-4.3,2.4v17.9h-6.8V10.1H449z"/>
</g>
<g>
	<path class="st0" d="M36.5,62.4h-8.9l-2,5.5h-1.7l7.4-19.6h1.6l7.4,19.6h-1.7L36.5,62.4z M28.1,61H36l-3.9-10.7L28.1,61z"/>
	<path class="st0" d="M57.8,67.9h-1.7L44.9,51.1v16.8h-1.7V48.3h1.7l11.3,16.8V48.3h1.6V67.9z"/>
	<path class="st0" d="M73.7,62.4h-8.9l-2,5.5H61l7.4-19.6H70l7.4,19.6h-1.7L73.7,62.4z M65.3,61h7.9l-3.9-10.7L65.3,61z"/>
	<path class="st0" d="M82,66.5h9.7v1.4H80.3V48.3H82V66.5z"/>
	<path class="st0" d="M97.4,59l6-10.7h1.9l-7.1,12.3v7.4h-1.7v-7.4l-7.1-12.3h2L97.4,59z"/>
	<path class="st0" d="M119.1,63.1c0-1.1-0.4-2-1.1-2.6c-0.8-0.6-2.2-1.2-4.2-1.8c-2-0.6-3.5-1.2-4.5-1.9c-1.3-1-2-2.2-2-3.8
		c0-1.5,0.6-2.7,1.9-3.7c1.2-0.9,2.8-1.4,4.7-1.4c1.3,0,2.5,0.3,3.5,0.8c1,0.5,1.8,1.2,2.4,2.1c0.6,0.9,0.8,1.9,0.8,3H119
		c0-1.3-0.5-2.4-1.4-3.2c-0.9-0.8-2.2-1.2-3.7-1.2c-1.5,0-2.7,0.3-3.6,1c-0.9,0.7-1.3,1.5-1.3,2.6c0,1,0.4,1.8,1.2,2.4
		c0.8,0.6,2.1,1.2,3.8,1.7c1.8,0.5,3.1,1,4,1.5c0.9,0.5,1.6,1.1,2.1,1.9c0.5,0.7,0.7,1.6,0.7,2.6c0,1.5-0.6,2.8-1.9,3.7
		c-1.2,0.9-2.9,1.4-4.9,1.4c-1.4,0-2.7-0.2-3.8-0.7s-2-1.2-2.6-2.1c-0.6-0.9-0.9-1.9-0.9-3.1h1.7c0,1.4,0.5,2.5,1.6,3.3
		c1,0.8,2.4,1.2,4.1,1.2c1.5,0,2.8-0.3,3.7-1C118.6,65.1,119.1,64.2,119.1,63.1z"/>
	<path class="st0" d="M126.4,67.9h-1.7V48.3h1.7V67.9z"/>
	<path class="st0" d="M146.3,67.9h-1.7l-11.3-16.8v16.8h-1.7V48.3h1.7l11.3,16.8V48.3h1.6V67.9z"/>
	<path class="st0" d="M165.5,65.6c-0.6,0.8-1.5,1.5-2.7,1.9c-1.2,0.5-2.6,0.7-4.1,0.7c-1.5,0-2.9-0.4-4.1-1.1
		c-1.2-0.7-2.1-1.8-2.8-3.1c-0.7-1.3-1-2.9-1-4.6v-2.5c0-2.7,0.7-4.9,2.1-6.5c1.4-1.6,3.2-2.4,5.5-2.4c2,0,3.7,0.5,4.9,1.5
		c1.2,1,2,2.4,2.2,4.3h-1.7c-0.2-1.4-0.8-2.5-1.8-3.3c-0.9-0.7-2.1-1.1-3.7-1.1c-1.8,0-3.3,0.7-4.4,2c-1.1,1.3-1.6,3.1-1.6,5.5v2.3
		c0,1.5,0.3,2.8,0.8,4c0.5,1.1,1.2,2,2.2,2.7c0.9,0.6,2,0.9,3.3,0.9c1.4,0,2.7-0.2,3.7-0.7c0.7-0.3,1.2-0.6,1.5-1V60h-5.3v-1.4h6.9
		V65.6z"/>
	<path class="st0" d="M191.6,67.9h-1.7l-11.3-16.8v16.8h-1.7V48.3h1.7l11.3,16.8V48.3h1.6V67.9z"/>
	<path class="st0" d="M207.4,58.5h-9.2v8h10.6v1.4h-12.2V48.3h12.2v1.4h-10.5v7.4h9.2V58.5z"/>
	<path class="st0" d="M223.1,58.5h-9.2v8h10.6v1.4h-12.2V48.3h12.2v1.4h-10.5v7.4h9.2V58.5z"/>
	<path class="st0" d="M228,67.9V48.3h5.5c1.6,0,3.1,0.4,4.3,1.1c1.3,0.7,2.3,1.8,3,3.2c0.7,1.4,1.1,2.9,1.1,4.7V59
		c0,1.8-0.4,3.3-1.1,4.7c-0.7,1.4-1.7,2.4-3,3.1c-1.3,0.7-2.8,1.1-4.4,1.1H228z M229.7,49.7v16.8h3.7c2.1,0,3.7-0.7,5-2.1
		s1.9-3.2,1.9-5.6v-1.7c0-2.3-0.6-4.1-1.8-5.4c-1.2-1.4-2.9-2-4.9-2.1H229.7z"/>
	<path class="st0" d="M257.2,63.1c0-1.1-0.4-2-1.1-2.6c-0.8-0.6-2.2-1.2-4.2-1.8c-2-0.6-3.5-1.2-4.5-1.9c-1.3-1-2-2.2-2-3.8
		c0-1.5,0.6-2.7,1.9-3.7c1.2-0.9,2.8-1.4,4.7-1.4c1.3,0,2.5,0.3,3.5,0.8c1,0.5,1.8,1.2,2.4,2.1c0.6,0.9,0.8,1.9,0.8,3h-1.7
		c0-1.3-0.5-2.4-1.4-3.2c-0.9-0.8-2.2-1.2-3.7-1.2c-1.5,0-2.7,0.3-3.6,1c-0.9,0.7-1.3,1.5-1.3,2.6c0,1,0.4,1.8,1.2,2.4
		c0.8,0.6,2.1,1.2,3.8,1.7c1.8,0.5,3.1,1,4,1.5c0.9,0.5,1.6,1.1,2.1,1.9c0.5,0.7,0.7,1.6,0.7,2.6c0,1.5-0.6,2.8-1.9,3.7
		c-1.2,0.9-2.9,1.4-4.9,1.4c-1.4,0-2.7-0.2-3.8-0.7c-1.2-0.5-2-1.2-2.6-2.1c-0.6-0.9-0.9-1.9-0.9-3.1h1.7c0,1.4,0.5,2.5,1.6,3.3
		c1,0.8,2.4,1.2,4.1,1.2c1.5,0,2.8-0.3,3.7-1C256.7,65.1,257.2,64.2,257.2,63.1z"/>
	<path class="st0" d="M279.8,62.4h-8.9l-2,5.5h-1.7l7.4-19.6h1.6l7.4,19.6h-1.7L279.8,62.4z M271.4,61h7.9l-3.9-10.7L271.4,61z"/>
	<path class="st0" d="M301.1,67.9h-1.7l-11.3-16.8v16.8h-1.7V48.3h1.7l11.3,16.8V48.3h1.6V67.9z"/>
	<path class="st0" d="M306.1,67.9V48.3h5.5c1.6,0,3.1,0.4,4.3,1.1c1.3,0.7,2.3,1.8,3,3.2c0.7,1.4,1.1,2.9,1.1,4.7V59
		c0,1.8-0.4,3.3-1.1,4.7c-0.7,1.4-1.7,2.4-3,3.1c-1.3,0.7-2.8,1.1-4.4,1.1H306.1z M307.7,49.7v16.8h3.7c2.1,0,3.7-0.7,5-2.1
		c1.3-1.4,1.9-3.2,1.9-5.6v-1.7c0-2.3-0.6-4.1-1.8-5.4c-1.2-1.4-2.9-2-4.9-2.1H307.7z"/>
	<path class="st0" d="M338.2,59.7h-5.7v8.2h-1.7V48.3h6.4c2.1,0,3.7,0.5,4.9,1.5c1.2,1,1.8,2.4,1.8,4.3c0,1.3-0.4,2.4-1.1,3.3
		c-0.7,1-1.7,1.6-3,2l4.9,8.4v0.2H343L338.2,59.7z M332.5,58.3h5.1c1.4,0,2.5-0.4,3.4-1.2c0.8-0.8,1.3-1.8,1.3-3.1
		c0-1.4-0.4-2.5-1.3-3.2c-0.9-0.8-2.1-1.1-3.7-1.1h-4.7V58.3z"/>
	<path class="st0" d="M359.3,58.5h-9.2v8h10.6v1.4h-12.2V48.3h12.2v1.4h-10.5v7.4h9.2V58.5z"/>
	<path class="st0" d="M375.3,63.1c0-1.1-0.4-2-1.1-2.6c-0.8-0.6-2.2-1.2-4.2-1.8c-2-0.6-3.5-1.2-4.5-1.9c-1.3-1-2-2.2-2-3.8
		c0-1.5,0.6-2.7,1.9-3.7c1.2-0.9,2.8-1.4,4.7-1.4c1.3,0,2.5,0.3,3.5,0.8c1,0.5,1.8,1.2,2.4,2.1c0.6,0.9,0.8,1.9,0.8,3h-1.7
		c0-1.3-0.5-2.4-1.4-3.2c-0.9-0.8-2.2-1.2-3.7-1.2c-1.5,0-2.7,0.3-3.6,1c-0.9,0.7-1.3,1.5-1.3,2.6c0,1,0.4,1.8,1.2,2.4
		s2.1,1.2,3.8,1.7c1.8,0.5,3.1,1,4,1.5c0.9,0.5,1.6,1.1,2.1,1.9c0.5,0.7,0.7,1.6,0.7,2.6c0,1.5-0.6,2.8-1.9,3.7
		c-1.2,0.9-2.9,1.4-4.9,1.4c-1.4,0-2.7-0.2-3.8-0.7c-1.2-0.5-2-1.2-2.6-2.1c-0.6-0.9-0.9-1.9-0.9-3.1h1.7c0,1.4,0.5,2.5,1.6,3.3
		c1,0.8,2.4,1.2,4.1,1.2c1.5,0,2.8-0.3,3.7-1C374.8,65.1,375.3,64.2,375.3,63.1z"/>
	<path class="st0" d="M382.2,59.9v8h-1.7V48.3h6.7c2,0,3.7,0.5,4.8,1.6c1.2,1,1.8,2.5,1.8,4.3c0,1.8-0.6,3.3-1.7,4.3
		c-1.1,1-2.8,1.5-4.9,1.5H382.2z M382.2,58.5h5c1.6,0,2.8-0.4,3.7-1.1c0.8-0.8,1.3-1.8,1.3-3.2c0-1.4-0.4-2.4-1.3-3.3
		c-0.8-0.8-2-1.2-3.6-1.2h-5.1V58.5z"/>
	<path class="st0" d="M412,59.2c0,1.8-0.3,3.4-0.9,4.8c-0.6,1.4-1.5,2.4-2.7,3.2c-1.2,0.7-2.5,1.1-4,1.1c-2.3,0-4.1-0.8-5.6-2.5
		c-1.4-1.6-2.1-3.9-2.1-6.6v-2c0-1.8,0.3-3.4,1-4.8c0.6-1.4,1.5-2.4,2.7-3.2c1.2-0.7,2.5-1.1,4-1.1c1.5,0,2.8,0.4,4,1.1
		c1.2,0.7,2,1.8,2.7,3.1c0.6,1.3,1,2.9,1,4.6V59.2z M410.4,57c0-2.4-0.5-4.2-1.6-5.6c-1.1-1.3-2.5-2-4.4-2c-1.8,0-3.3,0.7-4.4,2
		c-1.1,1.3-1.6,3.2-1.6,5.6v2.1c0,2.3,0.5,4.2,1.6,5.5c1.1,1.4,2.5,2,4.4,2c1.9,0,3.3-0.7,4.4-2c1.1-1.3,1.6-3.2,1.6-5.6V57z"/>
	<path class="st0" d="M430.9,67.9h-1.7l-11.3-16.8v16.8h-1.7V48.3h1.7l11.3,16.8V48.3h1.6V67.9z"/>
	<path class="st0" d="M447,63.1c0-1.1-0.4-2-1.1-2.6c-0.8-0.6-2.2-1.2-4.2-1.8c-2-0.6-3.5-1.2-4.5-1.9c-1.3-1-2-2.2-2-3.8
		c0-1.5,0.6-2.7,1.9-3.7c1.2-0.9,2.8-1.4,4.7-1.4c1.3,0,2.5,0.3,3.5,0.8c1,0.5,1.8,1.2,2.4,2.1c0.6,0.9,0.8,1.9,0.8,3h-1.7
		c0-1.3-0.5-2.4-1.4-3.2c-0.9-0.8-2.2-1.2-3.7-1.2c-1.5,0-2.7,0.3-3.6,1c-0.9,0.7-1.3,1.5-1.3,2.6c0,1,0.4,1.8,1.2,2.4
		c0.8,0.6,2.1,1.2,3.8,1.7c1.8,0.5,3.1,1,4,1.5c0.9,0.5,1.6,1.1,2.1,1.9c0.5,0.7,0.7,1.6,0.7,2.6c0,1.5-0.6,2.8-1.9,3.7
		c-1.2,0.9-2.9,1.4-4.9,1.4c-1.4,0-2.7-0.2-3.8-0.7c-1.2-0.5-2-1.2-2.6-2.1c-0.6-0.9-0.9-1.9-0.9-3.1h1.7c0,1.4,0.5,2.5,1.6,3.3
		c1,0.8,2.4,1.2,4.1,1.2c1.5,0,2.8-0.3,3.7-1C446.5,65.1,447,64.2,447,63.1z"/>
	<path class="st0" d="M463.1,58.5h-9.2v8h10.6v1.4h-12.2V48.3h12.2v1.4h-10.5v7.4h9.2V58.5z"/>
</g>
<rect class="st1" width="8" height="68.2"/>
</svg>
