<?xml version="1.0" encoding="UTF-8"?>
<svg id="Text" xmlns="http://www.w3.org/2000/svg" viewBox="0 0 48 48">
  <defs>
    <style>
      .cls-1 {
        fill: #009edb;
      }
    </style>
  </defs>
  <path class="cls-1" d="M38.19,17.02h-2.18v-5.06C36.01,5.36,30.65,0,24.05,0h-.09C17.36,0,12,5.36,12,11.96v5.06h-2.15c-1.56,0-2.83,1.26-2.83,2.81v25.35c0,1.56,1.27,2.82,2.83,2.82h28.34c1.56,0,2.83-1.26,2.83-2.82v-25.35c0-1.55-1.27-2.81-2.83-2.81ZM27,34.98v1.04c0,1.65-1.34,3-2.99,3s-3-1.35-3-3v-1.03c-1.21-.92-2-2.35-2-3.99,0-2.76,2.23-5,5-5s5,2.24,5,5c0,1.64-.8,3.07-2.01,3.98ZM31.01,17.02h-14.01v-5.06c0-3.84,3.12-6.96,6.96-6.96h.09c3.84,0,6.96,3.12,6.96,6.96v5.06Z"/>
</svg>